<svg width="200" height="166" fill="none" xmlns="http://www.w3.org/2000/svg"><path d="M132.065 57.001v2.532l-3.512.323c0-.737-.032-1.467.024-2.192.013-.16.321-.404.518-.427.952-.11 1.913-.158 2.97-.236zM126.691 57.58c-.066.955-.119 1.715-.173 2.578l-3.555.69.209-2.589 3.519-.68zM148.965 60.702l-3.529-.606-.187-2.603 3.548.64.168 2.569zM128.85 53.207l3.339-.323v2.59l-3.493.344.154-2.611zM134.257 59.385v-2.496h3.35v2.492l-3.35.004zM139.844 56.911l3.296.323.183 2.52-3.476-.219-.003-2.624zM126.789 56.084l-3.471.661c.057-.887.113-1.71.173-2.603l3.3-.61-.002 2.552zM145.199 56.025l-.205-2.601 3.45.62.186 2.589-3.431-.608zM134.394 51.297v-2.532h3.171v2.532h-3.171zM129.019 49.16l3.403-.369-.122 2.65-3.278.233-.003-2.514zM137.6 55.352h-3.201v-2.511h3.201v2.511zM137.647 47.271h-3.217v-2.575h3.096l.121 2.575zM157.246 63l-3.214-.932c-.11-.863-.214-1.688-.345-2.672l3.424 1.118c.116.755.231 1.514.345 2.274l-.21.212zM119.067 56.656a944.124 944.124 0 01-.33 2.648l-3.382 1.101.324-2.61 3.388-1.14zM153.209 55.228l3.385 1.143.319 2.622-3.35-1.107c-.109-.837-.222-1.688-.354-2.658zM148.325 52.535l-3.422-.625v-2.525l3.172.549.25 2.601zM139.775 55.435V52.86l3.215.307v2.545l-3.215-.277zM129.085 47.653l.139-2.556 3.196-.346v2.59l-3.335.312zM147.97 48.43l-3.278-.545-.213-2.59 3.268.55c.085.859.148 1.627.223 2.585zM139.654 48.775l3.141.311.143 2.59-3.277-.322-.007-2.579zM156.359 54.817l-3.277-1.058-.357-2.631 3.261 1.036c.132.908.244 1.707.373 2.653zM139.558 44.71l3.006.309.209 2.59-3.215-.322V44.71zM129.293 43.596c.061-.911.112-1.691.173-2.573l3.051-.33v2.572l-3.224.331zM147.666 44.346l-3.21-.554-.19-2.59 3.119.53.281 2.614zM129.604 36.945l3.056-.328v2.576l-3.056.323v-2.57zM126.844 52.055l-3.158.56.172-2.547 3.193-.606-.207 2.593zM158.394 57.103l3.191 1.4c.138.863.269 1.676.424 2.655-1.131-.49-2.149-.8-3.001-1.36-.355-.233-.379-.998-.517-1.533-.067-.306-.054-.634-.097-1.162zM127.342 45.323l-.22 2.632-3.105.584.195-2.57 3.13-.646zM155.429 48.021l.378 2.634-3.217-1.035c-.098-.81-.196-1.632-.315-2.631l3.154 1.032zM119.194 53.1v2.517l-3.316 1.063.31-2.574 3.006-1.006zM129.687 35.461c.053-.896.103-1.726.158-2.618l2.908-.263v2.558l-3.066.323zM158.098 55.565c-.118-.864-.226-1.658-.363-2.645l3.114 1.315c.153.85.308 1.713.488 2.699l-3.239-1.37zM144.175 37.13l2.873.528c.076.85.151 1.673.235 2.59l-3.105-.542-.003-2.576zM110.181 62.63c.148-.94.27-1.726.417-2.64l2.891-1.382.214.173-.345 2.394-3.177 1.456zM127.584 41.263c-.06.911-.11 1.667-.173 2.563l-3.071.658c.082-.922.158-1.76.239-2.634l3.005-.587zM119.712 49.349l-.233 2.612-3.139 1.094.371-2.643 3.001-1.063zM155.24 46.497l-3.159-1.05-.231-2.59 2.988.974c.127.84.25 1.665.402 2.666zM114.267 55.02c-.114.788-.226 1.562-.345 2.416l-2.967 1.362c-.404-1.949 1.013-3.589 3.312-3.779zM111.905 51.377c.173-.976.311-1.8.463-2.68l3.004-1.294c-.134.973-.246 1.793-.365 2.648l-3.102 1.326zM139.518 40.676l2.865.253v2.566l-2.865-.268v-2.551zM146.959 36.13l-2.982-.492c-.073-.88-.14-1.681-.214-2.59l2.965.519.231 2.563zM105.976 61.525c-.199-2.192.736-3.354 3.403-4.316-.156.864-.044 1.873-.495 2.367-.739.806-1.844 1.27-2.908 1.95zM139.361 36.63l2.844.234v2.53l-2.844-.194v-2.57zM111.478 55.045c.081-.904.153-1.726.227-2.589l3.091-1.348c-.112.901-.183 1.61-.302 2.31a.7.7 0 01-.345.454c-.865.41-1.752.773-2.671 1.173zM117.189 46.723l2.977-1.026-.299 2.619-3.015 1.024c.119-.933.223-1.727.337-2.617zM137.448 43.079h-2.901v-2.452h2.901v2.452zM137.448 39.044h-2.88v-2.45h2.88v2.45zM154.31 39.68l.319 2.598-2.984-.943-.324-2.627 2.989.972zM134.552 34.966v-2.443h2.855v2.443h-2.855zM157.316 48.775l2.879 1.299c.141.916.266 1.712.409 2.636l-3.114-1.345c-.055-.801-.11-1.626-.174-2.59zM112.557 47.65l.416-2.69 2.968-1.29-.379 2.642-3.005 1.338zM150.834 34.548l2.933.996c.11.91.21 1.71.32 2.614l-2.92-.948c-.105-.846-.21-1.688-.333-2.662zM117.68 43.033l2.908-1.053-.284 2.659-2.933 1c.123-.995.216-1.801.309-2.606zM143.695 31.534c-.051-.863-.1-1.631-.155-2.555l2.894.492c.056.901.102 1.68.159 2.59l-2.898-.527zM124.717 40.355l.23-2.58 2.759-.569v2.529l-2.989.62zM110.065 53.47l-.483 2.59-2.882 1.571c-.188-2.158.595-3.13 3.365-4.16zM139.345 35.122l-.196-2.536 2.956.204v2.546l-2.76-.214zM129.997 28.786l2.967-.243-.143 2.524-2.817.3-.007-2.58zM139.173 31.073V28.54l2.76.187.222 2.558-2.982-.212zM139.045 27.002v-2.558l2.76.238.112 2.55-2.872-.23zM128.101 33.077l-.184 2.607-2.825.575.172-2.59 2.837-.592zM132.953 27.024l-2.728.226v-2.532l2.728-.243v2.55zM113.587 41.254l2.867-1.282c-.142 1.06-.252 1.899-.354 2.655l-2.908 1.277c.14-.934.261-1.738.395-2.65zM162.684 55.131l2.904 1.676c.182.902.345 1.727.558 2.752l-2.972-1.704-.49-2.724zM138.818 20.332l2.837.285v2.525l-2.636-.172c-.063-.834-.125-1.654-.201-2.638zM153.534 33.976l-2.831-.91a413.34 413.34 0 01-.345-2.672l2.801.946.375 2.636zM134.55 30.91v-2.434h2.75v2.434h-2.75zM137.307 24.444v2.429h-2.738v-2.43h2.738zM137.284 22.83h-2.716v-2.44h2.716v2.44zM107.464 53.726c-.205-1.952.888-3.31 3.129-3.94.293 1.825-.649 3.025-3.129 3.94zM161.666 49.376l-.497-2.717 2.903 1.605.53 2.703-2.936-1.591zM143.313 24.904l2.735.454.19 2.617-2.803-.518c-.035-.8-.072-1.595-.122-2.553zM125.39 32.177c.09-.944.172-1.77.252-2.624l2.735-.549-.215 2.59-2.772.583zM157.032 47.207l-.397-2.675 2.841 1.308.414 2.657-2.858-1.29zM161.922 50.894l2.994 1.659.314 2.622-2.805-1.566c-.14-.805-.3-1.621-.503-2.715zM133.109 20.42v2.525l-2.814.282c.064-.9.121-1.695.187-2.59l2.627-.217zM118.215 39.33l2.794-.99-.31 2.613-2.852.993c.131-.94.247-1.756.368-2.615zM113.791 40.163c.153-.967.281-1.766.426-2.665l2.809-1.235-.374 2.636-2.861 1.264zM121.121 37.299l-2.772.946c.119-.917.219-1.692.345-2.617l2.76-.991c-.122.968-.219 1.79-.333 2.662zM110.941 48.5l-2.661 1.472c-.507-1.676.917-3.52 3.105-3.97l-.444 2.497zM143.011 20.81l2.697.463.235 2.62-2.699-.494c-.075-.816-.149-1.643-.233-2.589zM167.646 58.12l2.612 1.785c.172.823.344 1.648.538 2.535-2.129-.578-3.779-2.888-3.15-4.32zM134.252 60.93h3.369l.172 1.9h-3.541v-1.9zM156.017 40.298l2.722 1.291c.149.82.295 1.64.485 2.695l-2.803-1.278c-.131-.858-.252-1.676-.404-2.708zM160.407 42.407l2.791 1.525c.172.892.345 1.709.55 2.722l-2.842-1.521c-.15-.846-.306-1.683-.499-2.726zM150.212 28.937c-.104-.863-.205-1.681-.323-2.641l2.696.889.38 2.62-2.753-.868zM169.749 58.211c-.88-.6-1.929-1.056-2.574-1.843-.5-.613-.496-1.639-.753-2.62 2.128.87 3.465 2.08 3.327 4.463zM141.588 19.108l-2.674-.197v-2.59l2.453.187c.072.88.141 1.7.221 2.6zM125.992 25.47l2.603-.555-.124 2.59-2.691.555.212-2.59zM134.688 18.78v-2.44h2.588v2.44h-2.588zM133.153 18.911l-2.545.221v-2.54l2.701-.27c-.056.889-.104 1.707-.156 2.59zM145.593 19.774l-2.625-.44-.161-2.61 2.587.468.199 2.582zM155.776 38.775l-.336-2.508c2.433.635 3.216 1.647 2.913 3.732l-2.577-1.224zM141.189 12.455l.211 2.608-2.648-.269v-2.568l2.437.23zM154.158 27.777l2.629 1.124.462 2.683c-.899-.383-1.711-.708-2.498-1.088-.155-.076-.263-.354-.298-.556-.114-.652-.183-1.313-.295-2.163zM118.668 60.313l-.353 2.581h-2.781a4.955 4.955 0 01-.529-.072l.205-1.359 3.458-1.15zM162.698 42.262l-2.539-1.398c-.152-.792-.309-1.626-.473-2.484 1.935.223 3.364 2.047 3.012 3.882zM163.924 62.107l-.485-2.772c1.077.673 2.07 1.167 2.891 1.87.345.296.309 1.035.443 1.553-1.178.389-2.012-.062-2.849-.65zM130.851 15.08v-2.556l2.546-.274c-.045.925-.087 1.745-.13 2.613l-2.416.218zM102.148 60.657l.402-2.59 2.587-1.877.161.09c-.173.852-.345 1.701-.518 2.59l-2.639 1.78.007.007zM128.855 20.843c-.055 1-.098 1.778-.141 2.59l-2.598.53.202-2.564 2.537-.556zM142.721 12.66l2.358.461c.064.887.12 1.67.188 2.565l-2.546-.448V12.66zM168.748 53.799c-.879-.603-1.85-1.007-2.414-1.727-.499-.642-.544-1.638-.813-2.561a4.164 4.164 0 013.227 4.288zM158.87 33.891l2.658 1.473c.173.894.333 1.712.518 2.68l-2.646-1.38c-.154-.827-.324-1.7-.53-2.773zM153.52 23.587c.843.354 1.533.622 2.201.938a.818.818 0 01.414.478c.157.74.257 1.491.398 2.37l-2.608-1.138-.405-2.648zM157.375 33.096c.136.942.253 1.759.385 2.66l-2.588-1.14-.367-2.656 2.57 1.136zM134.666 10.661l.181-2.519 2.292-.105v2.624h-2.473zM111.51 44.79l-2.494 1.372c-.386-1.795.597-3.128 2.876-3.919l-.382 2.546zM134.72 12.267h2.414v2.46h-2.414v-2.46zM104.516 48.867c.173-.811.345-1.623.538-2.494l2.693-1.851c-.221 1.082-.392 1.923-.564 2.774l-2.506 1.683-.161-.112zM103.795 52.871l.345-2.589 2.644-1.821c.1 2.04-.476 2.87-2.989 4.41zM112.135 41.033l-2.384 1.355c-.364-1.838.33-2.819 2.865-4.058l-.481 2.703zM133.393 10.811l-2.499.185.2-2.567 2.294-.238.005 2.62zM126.482 19.863l.205-2.636 2.446-.436-.183 2.57-2.468.502zM134.847 6.608V4.086h2.28v2.522h-2.28zM106.096 52.426l-.509 2.498-2.597 1.916c-.038-2.185.949-3.623 3.106-4.414zM129.557 8.616v2.59l-2.53.467.195-2.57 2.335-.487zM134.878 0h2.225v2.563h-2.225V0zM152.406 25.663l-2.577-.864-.207-2.589 2.396.787.388 2.666zM158.343 29.766l2.333 1.277c.173.827.345 1.681.547 2.722l-2.573-1.38-.487-2.497.18-.122zM108.504 40.824c-.197.964-.364 1.783-.536 2.633l-2.524 1.726c-.089-2.072.597-3.083 3.06-4.359zM131.929 62.846h-3.503v-1.495l3.675-.32c-.058.68-.112 1.225-.172 1.815zM129.212 15.306l-2.285.403v-2.524l2.466-.489c-.065.893-.12 1.715-.181 2.61zM98.505 60.417l.716-2.88 2.515-2.071.133.091c-.218.884-.437 1.768-.642 2.605l-2.722 2.255zM142.278 8.567l2.414.434.195 2.605-2.406-.451-.203-2.588zM167.805 49.357a.547.547 0 01-.164-.033c-.781-.518-1.563-1.046-2.425-1.624-.102-.796-.212-1.644-.324-2.503 1.887.77 3.03 2.025 2.913 4.16zM131.211 6.937V4.381l2.349-.249v2.552l-2.349.253zM155.667 23.071l-2.368-1.036-.359-2.55c2.344.645 2.991 1.498 2.727 3.586zM141.05 8.397v2.511l-2.344-.13V8.18l2.344.218zM143.295 61.287c.066.575.118 1.036.173 1.554h-3.51v-1.856l3.337.302zM140.984 6.886l-2.385-.209V4.124l2.259.202c.04.79.078 1.583.126 2.56zM129.75 7.137l-2.392.435c.085-.903.164-1.727.245-2.607l2.147-.381v2.553zM131.487.278l2.294-.22c-.058.916-.11 1.696-.172 2.59l-2.127.228.005-2.598zM157.532 25.628c1.806.323 2.932 1.863 2.653 3.625-1.965-.545-2.902-1.823-2.653-3.625zM99.635 56.242c.152-2.156 1.035-3.498 3.012-4.611.145 1.676-.708 2.997-3.012 4.61zM151.8 21.464l-2.414-.8-.245-2.61 2.306.767c.112.812.222 1.644.353 2.643zM138.45 2.626V.062l2.163.173.223 2.58-2.386-.19zM152.683 17.875l-.377-2.655 2.368 1.022.41 2.648-2.401-1.015zM100.496 52.318c.227-.93.445-1.811.667-2.724l2.443-2.008c-.137 2.256-.963 3.489-3.11 4.732zM148.606 13.85l2.311.863c.117.872.226 1.674.356 2.629l-2.348-.848c-.093-.846-.2-1.653-.319-2.644zM170.961 56.911c1.882 1.074 2.998 2.522 3.022 4.756-1.359-1.1-2.808-2.05-2.917-4.014-.012-.217-.06-.431-.105-.742zM144.358 4.896l.219 2.579-2.342-.392V4.558l2.123.338zM166.756 45.028l-2.27-1.645-.531-2.519.183-.124 2.225 1.652c.172.815.364 1.672.55 2.529l-.157.107zM171.927 52.702l-2.453-1.992-.567-2.572c1.921.884 2.989 2.486 3.02 4.564zM170.011 52.561c1.775.99 3.105 2.263 2.827 4.464-1.544-1.02-2.96-2.244-2.825-4.467l-.002.003zM162.285 32.204c1.931.702 2.933 2.2 2.691 3.935-1.959-.799-2.835-2.06-2.691-3.935zM154.412 14.704l-2.334-1.016-.404-2.645 2.27.94.468 2.721zM129.983 3.054l-2.242.4c.074-.915.136-1.692.207-2.556l2.242-.446c-.076.962-.14 1.775-.207 2.602zM168.019 43.769c1.833.903 2.771 2.351 2.804 4.418-1.573-1.081-3.035-2.186-2.804-4.418zM163.074 36.519c2.206.639 2.715 2.234 2.827 4.19l-2.322-1.727-.505-2.463zM164.088 31.788c-1.897-.69-2.932-2.197-2.675-3.894 1.752.537 2.552 1.7 2.675 3.895zM150.719 13.173l-2.26-.837-.336-2.622 2.199.78c.131.887.254 1.707.397 2.68zM166.942 39.28c1.827.957 2.803 2.417 2.817 4.429-1.644-.976-2.929-2.236-2.817-4.428zM156.923 21.241l2.07 1.262c.172.832.345 1.67.517 2.534-1.852-.392-2.853-1.854-2.587-3.796zM162.61 24.82c.189.896.367 1.727.559 2.624-1.887-.711-2.896-2.234-2.641-4.029l2.082 1.405zM144.27 3.423l-2.12-.393-.209-2.545 2.094.318c.081.908.15 1.688.235 2.62zM168.555 39.224l-2.12-1.754-.638-2.657c1.858.87 2.972 2.643 2.758 4.41zM104.406 43.778l-.569 2.726-2.187 1.803c-.159-1.63.957-3.476 2.756-4.53zM160.002 21.723c-.173-.839-.337-1.671-.518-2.575 1.815.626 2.462 1.617 2.676 4.011l-2.158-1.436zM100.818 59.51c-.295 1.223-.022 2.696-1.538 3.352H98c.005-1.94 1.754-2.348 2.818-3.353zM158.663 20.755c-1.897-.602-2.668-1.778-2.506-3.742.355.172.69.31 1.001.493.31.183.607.428.99.703l.515 2.546zM155.686 15.271l-.407-2.608 2.07 1.12c.159.932.312 1.821.48 2.791l-2.143-1.303zM161.095 18.716l-1.978-1.319c-.173-.825-.345-1.666-.538-2.56 1.794.577 2.616 1.847 2.516 3.879zM167.577 34.792c-1.38-1.077-2.932-1.949-2.434-4.048 1.354.364 2.257 1.84 2.434 4.048zM104.58 59.925l-.645 2.92h-2.363l.173-.914 2.835-2.006zM164.355 21.302l-1.897-1.554-.549-2.48.185-.104 1.744 1.424.657 2.619-.14.095zM165.264 25.673l-1.79-1.516c-.173-.794-.359-1.633-.554-2.524 1.718.682 2.553 2.15 2.344 4.04zM164.01 26.027c.999.623 1.925 1.3 2.111 2.589.076.537.19 1.07.287 1.604-1.628-.927-2.415-2.336-2.398-4.198v.005zM145.644 62.851l-.208-1.29 3.622.63c.045.212.084.406.136.66h-3.55zM108.395 62.84h-2.721l-.09-.212 3.17-1.793c-.141.796-.245 1.372-.359 2.006zM122.87 62.844c.085-.583 2.275-1.208 3.495-1.046v1.046h-3.495zM162.125 62.84h-2.932l-.233-1.57 3.224 1.381c-.023.064-.04.128-.059.19zM173.821 62.865h-1.504c-.128-.483-.254-.968-.381-1.452l.162-.12 1.723 1.572zM111.866 62.782l1.243-.507c-.007.673-.107.715-1.243.507zM168.348 62.33l.561.376-.109.202-.612-.306.16-.272zM165.026 30.408l-.05.015a.176.176 0 01-.015-.063s.031-.01.048-.018l.017.066zM166.415 30.223l.066.032-.063-.033-.003.001z" fill="#333"/><path d="M170.013 52.558l-.064-.031.062.034.002-.003zM164.021 26.023l-.066-.03.062.034.004-.004zM102.145 60.652l-.035.064c.012-.021.026-.04.038-.059l-.003-.005zM74.502 144.236c3.3 10.809 8.998 13.813 20.127 16.731-8.182-3.143-4.048-8.271-20.127-16.731zM62.6 139.971c1.779 10.186 7.348 14.166 18.262 17.835-7.528-3.427-2.003-6.414-18.262-17.835zM51.402 134.49c.155 10.325 6.6 15.073 15.924 19.027a151.539 151.539 0 00-15.924-19.027zM54.418 147.881c-5.018-3.686-2.818-8.59-13.045-20.287-1.805 9.703 4.529 15.496 13.045 20.287zM42.38 140.722c-3.825-3.738-2.2-9.548-9.617-21.392-3.54 8.529 2.054 15.841 9.617 21.392zM31.646 131.882c-2.862-4.066-.31-7.251-5.74-22.1-3.232 4.55-3.387 12.665 5.74 22.1z" fill="#333"/><path d="M22.734 121.402a191.647 191.647 0 00-1.78-22.403c-5.963 5.612-2.75 15.6 1.78 22.403zM17.964 87.397c-6.6 4.11-4.976 15.185-1.933 22.1-1.014-3.911 2.793-8.797 1.933-22.1zM16.838 75.26C11.45 77.47 9.49 87.441 11.69 96.721a119.498 119.498 0 005.148-21.46zM17.474 62.906c-4.641.992-8.8 11.05-7.786 20.485a87.372 87.372 0 007.786-20.485zM19.83 51.46c-2.595-.284-9.17 4.999-10.03 18.458A87.146 87.146 0 0019.83 51.46z" fill="#333"/><path d="M22.674 43.88c.327-.51.662-.976.928-1.39l.68-1.105c.378-.621.575-.993.575-.993h-.008a2.175 2.175 0 00-1.367 0 7.833 7.833 0 00-1.822.812 24.673 24.673 0 00-10.011 15.47A106.877 106.877 0 0022.674 43.88zM68.014 164.498l1.298.328v.008c.481.121.98.216 1.47.285.575 0 1.211.199 1.89.268h2.243c8.8.224 12.478-3.755 19.56-3.781a35.663 35.663 0 00-26.46 2.892zM80.596 158.645c-14.472-5.611-24.046 0-26.53 0 11.31 5.059 19.534-.526 26.53 0zM67 154.38c-12.934-6.19-20.04-3.203-26.27-3.073 11.137 6.673 19.67 1.994 26.27 3.073zM53.972 148.769c-11.834-7.45-20.153-5.767-25.413-6.76 9.84 8.434 19.783 5.145 25.413 6.76zM41.786 141.587c-10.03-8.176-16.724-8.4-23.694-10.809 8.207 10.342 18.786 8.659 23.694 10.809zM9.912 117.888c5.525 11.516 17.179 12.285 20.968 14.805-7.88-9.124-15.116-11.291-20.968-14.805zM4.386 103.877c3.893 13.061 14.274 15.271 17.377 18.232-6.592-10.428-11.147-12.75-17.377-18.232zM14.88 110.18c-1.874-5.102-5.457-11.732-13.355-20.727 1.453 13.303 11.576 18.077 13.355 20.727zM10.419 97.075A63.653 63.653 0 001 74.82C.278 88.28 8.898 93.89 10.419 97.075zM8.305 83.66A71.603 71.603 0 002.65 60.5C-.126 73.915 7.402 80.433 8.305 83.66zM8.322 69.916c.747-7.908-1.478-22.765-1.693-23.713C.999 58.884 7.952 66.93 8.322 69.916zM12.636 34.574c-7.038 12-2.51 18.828-2.484 21.815 0-.199 3.876-16.929 3.232-23.033-.267.398-.516.803-.748 1.218zM14.904 44.563c8.207-6.94 11.679-17.482 15.993-25.13-5.895 4.092-17.136 16.687-15.993 25.13zM105.37 161.01c11.129-2.918 16.827-5.922 20.127-16.73-16.079 8.417-11.946 13.545-20.127 16.73zM119.182 157.808c11-3.67 16.474-7.649 18.262-17.836-16.303 11.421-10.777 14.408-18.262 17.836zM132.674 153.501c9.41-3.963 15.727-8.711 15.925-19.01a150.814 150.814 0 00-15.925 19.01zM145.582 147.881c8.516-4.8 14.85-10.584 13.045-20.287-10.226 11.697-8.026 16.601-13.045 20.287zM167.23 119.332c-7.305 11.844-5.784 17.68-9.617 21.392 7.571-5.551 13.166-12.863 9.617-21.392zM174.096 109.74c-5.431 14.892-2.879 18.077-5.741 22.1 9.127-9.392 8.972-17.507 5.741-22.1z" fill="#333"/><path d="M179.046 99a191.738 191.738 0 00-1.779 22.402c4.529-6.802 7.743-16.791 1.779-22.403zM182.036 87.397c-.86 13.26 2.947 18.189 1.959 22.1 3.017-6.924 4.598-17.99-1.959-22.1zM183.162 75.26a119.546 119.546 0 005.148 21.461c2.2-9.28.24-19.294-5.148-21.46zM182.526 62.906a87.4 87.4 0 007.786 20.485c.963-9.41-3.145-19.493-7.786-20.485zM180.17 51.46a87.189 87.189 0 0010.029 18.458c-.859-13.459-7.433-18.742-10.029-18.457z" fill="#333"/><path d="M178.34 41.23a8.236 8.236 0 00-1.822-.82 2.174 2.174 0 00-1.366 0s.197.38.575.993l.679 1.105c.267.423.593.88.928 1.39l-.008.008a107.293 107.293 0 0011 12.794 24.64 24.64 0 00-9.986-15.47zM125.678 165.543h1.65c.679 0 1.324-.173 1.891-.268.49-.069.988-.164 1.47-.284l1.297-.328v-.009a35.663 35.663 0 00-26.4-2.737c7.082 0 10.828 3.997 19.56 3.781l.532-.155zM145.934 158.8c-2.484 0-12.057-5.698-26.53 0 6.995-.682 15.22 4.903 26.53 0zM133 154.38c6.712-1.079 15.159 3.6 26.27-3.073-6.247-.13-13.354-3.117-26.27 3.073zM171.432 142c-5.26.992-13.578-.682-25.412 6.759 5.637-1.606 15.58 1.683 25.412-6.759zM181.906 130.777c-6.978 2.409-13.664 2.633-23.694 10.809 4.907-2.15 15.486-.467 23.694-10.809zM190.2 117.888c-5.852 3.514-13.045 5.681-20.969 14.805 3.679-2.512 15.34-3.289 20.969-14.805zM178.23 122.109c3.102-2.961 13.483-5.171 17.376-18.232-6.222 5.482-10.776 7.804-17.376 18.232zM185.12 110.18c1.779-2.564 11.903-7.338 13.355-20.727-7.898 8.9-11.49 15.53-13.355 20.727zM199 74.82a63.697 63.697 0 00-9.376 22.3c1.478-3.23 10.098-8.84 9.376-22.3zM191.696 83.66c.902-3.117 8.422-9.635 5.655-23.05a71.628 71.628 0 00-5.655 23.05zM193.37 46.203c-.223.95-2.441 15.798-1.693 23.713.37-2.987 7.322-11.033 1.693-23.713zM187.364 34.574c-.232-.415-.481-.82-.747-1.218-.636 6.104 3.214 22.825 3.231 23.033.026-2.987 4.555-9.815-2.484-21.815zM169.102 19.44c4.4 7.648 7.786 18.189 15.993 25.13 1.143-8.452-10.098-21.047-15.993-25.13z" fill="#333"/><circle cx="101" cy="160" r="3" fill="#333"/><path d="M46.819 25c-2.45 0-4.56-.484-6.328-1.453a10.062 10.062 0 01-4.064-4.146c-.951-1.796-1.427-3.92-1.427-6.37 0-2.392.476-4.49 1.427-6.296.951-1.806 2.29-3.213 4.017-4.222C42.181 1.504 44.218 1 46.555 1c1.572 0 3.035.247 4.39.741a9.773 9.773 0 013.567 2.195c1.024.978 1.82 2.209 2.389 3.692.569 1.473.853 3.198.853 5.175v1.77H37.637V10.58h13.897c0-.928-.207-1.75-.62-2.467a4.391 4.391 0 00-1.722-1.68c-.724-.413-1.566-.62-2.528-.62-1.003 0-1.892.227-2.668.681a4.831 4.831 0 00-1.8 1.8c-.433.747-.656 1.58-.666 2.498v3.798c0 1.15.217 2.144.651 2.981a4.702 4.702 0 001.877 1.937c.807.454 1.763.68 2.87.68.734 0 1.406-.1 2.016-.302a4.207 4.207 0 001.566-.908 3.94 3.94 0 00.993-1.483l6.111.394a8.067 8.067 0 01-1.907 3.753c-.952 1.059-2.182 1.886-3.692 2.481-1.5.585-3.231.878-5.196.878zM59.008 24.546V1.303h6.298v4.1h.279c.496-1.361 1.324-2.436 2.482-3.223C69.225 1.393 70.61 1 72.223 1c1.634 0 3.025.398 4.173 1.195 1.147.787 1.913 1.857 2.295 3.209h.248c.487-1.332 1.365-2.396 2.637-3.193C82.86 1.404 84.373 1 86.121 1c2.223 0 4.027.691 5.413 2.073 1.396 1.372 2.094 3.32 2.094 5.841v15.632h-6.592v-14.36c0-1.292-.352-2.26-1.055-2.906-.703-.646-1.582-.969-2.637-.969-1.199 0-2.135.374-2.807 1.12-.672.737-1.008 1.71-1.008 2.92v14.195h-6.406V10.049c0-1.14-.336-2.048-1.008-2.724-.662-.676-1.536-1.014-2.621-1.014-.735 0-1.396.182-1.986.545-.579.353-1.039.853-1.38 1.498-.341.636-.512 1.382-.512 2.24v13.952h-6.608zM102.583 24.985c-1.52 0-2.874-.257-4.063-.772-1.19-.524-2.13-1.296-2.823-2.315-.683-1.03-1.024-2.31-1.024-3.844 0-1.291.243-2.376.729-3.253a5.814 5.814 0 011.985-2.119c.838-.534 1.79-.938 2.854-1.21a22.268 22.268 0 013.382-.575 87.833 87.833 0 003.35-.394c.848-.131 1.463-.323 1.846-.575.382-.252.574-.625.574-1.12v-.09c0-.959-.311-1.7-.931-2.225-.61-.525-1.479-.787-2.606-.787-1.189 0-2.135.257-2.838.772-.703.504-1.169 1.14-1.396 1.907L95.511 7.9c.31-1.412.92-2.633 1.83-3.662.91-1.039 2.083-1.836 3.521-2.39 1.447-.566 3.123-.848 5.025-.848 1.324 0 2.59.151 3.8.454 1.22.303 2.301.772 3.242 1.407a6.902 6.902 0 012.249 2.452c.548.988.822 2.174.822 3.556v15.677h-6.266v-3.223h-.186a6.594 6.594 0 01-1.536 1.922c-.641.544-1.411.973-2.311 1.286-.9.303-1.939.454-3.118.454zm1.893-4.45c.972 0 1.83-.186 2.574-.559.745-.383 1.329-.898 1.753-1.543.424-.646.636-1.378.636-2.195v-2.466c-.207.13-.491.252-.853.363-.352.1-.75.197-1.194.287-.445.081-.89.157-1.334.227-.445.061-.848.116-1.21.167-.776.11-1.453.287-2.032.53-.579.242-1.029.57-1.349.983-.321.404-.481.908-.481 1.513 0 .878.326 1.549.977 2.013.662.454 1.499.68 2.513.68zM39.073 34.667c-.633 0-1.18-.136-1.637-.407a2.758 2.758 0 01-1.055-1.153c-.246-.498-.368-1.08-.368-1.748 0-.66.122-1.242.368-1.745a2.863 2.863 0 011.038-1.178c.447-.282.969-.423 1.566-.423.363 0 .715.06 1.056.18.34.12.646.309.916.566.271.257.485.591.641 1.002.156.408.235.904.235 1.489v.444H36.72v-.94h3.886c0-.33-.067-.621-.201-.876a1.52 1.52 0 00-.566-.608 1.578 1.578 0 00-.845-.222c-.352 0-.659.087-.921.26-.26.17-.461.394-.603.671a1.94 1.94 0 00-.21.893v.734c0 .43.076.797.226 1.098.154.302.367.533.641.692.274.157.593.235.959.235.237 0 .453-.034.649-.1.195-.07.364-.174.507-.31.142-.138.25-.307.326-.508l1.185.214a2.15 2.15 0 01-.51.918c-.244.26-.55.462-.918.608a3.427 3.427 0 01-1.252.214zM43.884 30.713v3.824h-1.252v-6.44h1.202v1.048h.08a1.84 1.84 0 01.694-.822c.319-.207.72-.31 1.202-.31.438 0 .822.092 1.151.276.33.182.585.453.767.814.181.36.272.806.272 1.337v4.097h-1.252V30.59c0-.467-.122-.831-.364-1.094-.243-.266-.577-.398-1.001-.398-.29 0-.549.062-.775.188-.223.126-.4.31-.531.554-.129.24-.193.53-.193.872zM51.861 34.667c-.634 0-1.18-.136-1.637-.407a2.757 2.757 0 01-1.055-1.153c-.246-.498-.369-1.08-.369-1.748 0-.66.123-1.242.369-1.745a2.863 2.863 0 011.038-1.178c.447-.282.969-.423 1.566-.423.363 0 .715.06 1.055.18.34.12.646.309.917.566.271.257.485.591.64 1.002.157.408.235.904.235 1.489v.444h-5.112v-.94h3.886c0-.33-.067-.621-.201-.876a1.521 1.521 0 00-1.411-.83c-.352 0-.66.087-.922.26-.26.17-.46.394-.603.671a1.94 1.94 0 00-.209.893v.734c0 .43.075.797.226 1.098.154.302.367.533.64.692.274.157.594.235.96.235.237 0 .453-.034.649-.1a1.347 1.347 0 00.833-.818l1.185.214a2.15 2.15 0 01-.511.918c-.243.26-.549.462-.917.608a3.427 3.427 0 01-1.252.214zM55.42 34.537v-6.44h1.21v1.022h.067c.117-.346.324-.619.62-.817A1.772 1.772 0 0158.33 28a5.33 5.33 0 01.532.03v1.198a2.24 2.24 0 00-.268-.046 2.55 2.55 0 00-.386-.029c-.295 0-.56.063-.791.189a1.4 1.4 0 00-.745 1.262v3.933H55.42zM61.822 37.073c-.511 0-.95-.067-1.32-.2a2.555 2.555 0 01-.895-.533 2.22 2.22 0 01-.52-.713l1.076-.445c.076.118.176.245.302.382.128.137.301.254.52.352.22.098.503.147.85.147.474 0 .866-.115 1.176-.344.31-.23.464-.593.464-1.09v-1.266h-.08c-.075.137-.183.289-.326.457-.14.167-.332.313-.578.436-.245.123-.565.184-.958.184-.508 0-.966-.118-1.374-.356-.404-.24-.725-.594-.963-1.06-.234-.47-.351-1.048-.351-1.733 0-.684.115-1.271.347-1.76.235-.49.556-.864.963-1.124.408-.263.87-.394 1.386-.394.4 0 .722.067.967.2.246.132.437.286.574.462.14.176.247.331.322.465h.092v-1.044h1.227v6.583c0 .548-.128.998-.385 1.35a2.267 2.267 0 01-1.043.789c-.435.17-.926.255-1.473.255zm-.013-3.673c.36 0 .664-.083.913-.251.251-.17.44-.414.57-.73.13-.318.196-.7.196-1.144 0-.434-.064-.815-.193-1.145a1.7 1.7 0 00-.565-.771c-.248-.188-.555-.281-.921-.281-.377 0-.69.097-.942.293a1.77 1.77 0 00-.57.788 3.137 3.137 0 00-.188 1.116c0 .422.064.792.193 1.11.128.32.318.568.57.747.253.179.566.268.937.268zM66.604 36.935a2.612 2.612 0 01-.854-.138l.301-1.028c.344.095.631.102.863.021.234-.078.431-.325.59-.742l.155-.428-2.353-6.524h1.34l1.629 4.998h.067l1.628-4.998 1.353.013-2.659 7.287a2.86 2.86 0 01-.469.843c-.19.23-.416.403-.678.52a2.216 2.216 0 01-.913.176zM36.301 44.197v-6.44h1.202v1.048h.08c.134-.355.353-.632.657-.83.304-.201.669-.302 1.093-.302.43 0 .79.1 1.08.302.293.201.51.478.65.83h.066c.154-.344.398-.618.733-.822.335-.207.734-.31 1.197-.31.584 0 1.06.183 1.428.55.371.365.557.918.557 1.655v4.32h-1.252v-4.202c0-.436-.119-.752-.356-.948a1.293 1.293 0 00-.85-.293c-.407 0-.724.125-.95.377-.226.249-.34.569-.34.96v4.105H40.05v-4.28c0-.35-.109-.631-.327-.844-.218-.212-.5-.318-.85-.318-.237 0-.456.063-.657.188a1.384 1.384 0 00-.482.516c-.12.22-.18.477-.18.767v3.971h-1.252zM48.004 44.34c-.408 0-.776-.076-1.105-.227a1.863 1.863 0 01-.783-.666c-.19-.291-.285-.648-.285-1.07 0-.363.07-.662.21-.897.139-.235.327-.42.565-.558a2.95 2.95 0 01.795-.31c.293-.07.592-.123.896-.16l.938-.108c.24-.03.415-.08.523-.147.11-.067.164-.176.164-.327v-.03c0-.366-.104-.65-.31-.85-.204-.202-.508-.302-.913-.302-.421 0-.754.093-.996.28-.24.185-.407.39-.499.617l-1.176-.268c.14-.392.343-.708.611-.948.27-.243.582-.42.934-.528a3.64 3.64 0 011.11-.168c.256 0 .528.03.816.092.29.059.56.168.812.327.254.16.462.387.624.684.162.293.243.675.243 1.144v4.277h-1.223v-.88h-.05a1.784 1.784 0 01-.364.477c-.162.157-.37.287-.624.39a2.417 2.417 0 01-.913.156zm.272-1.007c.346 0 .642-.068.888-.205.248-.137.437-.316.565-.537.131-.223.197-.462.197-.717v-.83a.651.651 0 01-.26.126c-.125.036-.27.068-.431.096-.162.025-.32.05-.473.072l-.385.05c-.243.03-.465.082-.666.155a1.143 1.143 0 00-.477.314c-.118.135-.176.313-.176.537 0 .31.114.545.343.705.229.156.52.234.875.234zM53.508 40.373v3.824h-1.252v-6.44h1.201v1.048h.08a1.84 1.84 0 01.695-.822c.318-.207.719-.31 1.202-.31.438 0 .822.092 1.151.277.33.181.585.453.766.813.182.36.272.806.272 1.338v4.096h-1.252v-3.945c0-.467-.12-.832-.364-1.095-.243-.265-.576-.398-1-.398-.29 0-.549.063-.775.189-.223.125-.4.31-.532.553-.128.24-.192.531-.192.872zM60.584 44.34c-.407 0-.776-.076-1.105-.227a1.863 1.863 0 01-.783-.666c-.19-.291-.285-.648-.285-1.07 0-.363.07-.662.21-.897.14-.235.328-.42.565-.558a2.95 2.95 0 01.796-.31c.293-.07.591-.123.896-.16l.938-.108c.24-.03.414-.08.523-.147.109-.067.163-.176.163-.327v-.03c0-.366-.103-.65-.31-.85-.203-.202-.508-.302-.912-.302-.422 0-.754.093-.997.28-.24.185-.406.39-.498.617l-1.177-.268c.14-.392.344-.708.611-.948.271-.243.582-.42.934-.528a3.641 3.641 0 011.11-.168c.257 0 .529.03.816.092.29.059.561.168.813.327.254.16.461.387.623.684.162.293.243.675.243 1.144v4.277h-1.222v-.88h-.05c-.081.162-.203.321-.365.477-.162.157-.37.287-.624.39a2.418 2.418 0 01-.913.156zm.273-1.007c.346 0 .642-.068.887-.205.249-.137.437-.316.566-.537.13-.223.196-.462.196-.717v-.83a.65.65 0 01-.26.126c-.125.036-.269.068-.43.096-.162.025-.32.05-.474.072l-.385.05c-.243.03-.465.082-.666.155a1.143 1.143 0 00-.477.314c-.117.135-.176.313-.176.537 0 .31.115.545.344.705.229.156.52.234.875.234zM67.533 46.734c-.511 0-.95-.067-1.32-.202a2.555 2.555 0 01-.895-.532 2.22 2.22 0 01-.52-.713l1.077-.444c.075.117.175.244.301.381.129.137.302.255.52.353.22.097.503.146.85.146.474 0 .866-.114 1.176-.343.31-.23.465-.593.465-1.09v-1.267h-.08c-.075.137-.184.29-.327.457-.14.168-.332.313-.577.436-.246.123-.566.185-.96.185-.507 0-.965-.12-1.373-.357-.404-.24-.725-.594-.963-1.06-.234-.47-.351-1.047-.351-1.732s.115-1.272.347-1.761c.235-.49.556-.864.963-1.124.408-.263.87-.394 1.386-.394.4 0 .722.067.967.201.246.132.437.285.574.461.14.176.247.332.322.466h.093v-1.044h1.226v6.583c0 .547-.128.997-.385 1.35a2.267 2.267 0 01-1.043.788c-.435.17-.926.256-1.473.256zm-.013-3.673c.36 0 .664-.084.913-.252.251-.17.44-.413.57-.73.13-.318.196-.7.196-1.144 0-.433-.064-.815-.192-1.145a1.7 1.7 0 00-.566-.771c-.248-.187-.555-.281-.92-.281-.378 0-.692.098-.943.293a1.77 1.77 0 00-.57.789 3.137 3.137 0 00-.188 1.115c0 .422.064.792.193 1.111.128.319.318.568.57.746.253.18.566.269.937.269zM74.296 44.327c-.634 0-1.18-.136-1.638-.407a2.756 2.756 0 01-1.055-1.153c-.245-.497-.368-1.08-.368-1.748 0-.66.123-1.241.368-1.744a2.864 2.864 0 011.039-1.179c.446-.282.968-.423 1.566-.423.362 0 .714.06 1.055.18.34.12.646.31.917.566.27.257.484.592.64 1.002.157.409.235.905.235 1.489v.444h-5.113v-.939h3.886c0-.33-.067-.622-.201-.876a1.521 1.521 0 00-1.411-.83c-.352 0-.659.086-.921.26-.26.17-.46.394-.603.67-.14.274-.21.572-.21.893v.734c0 .43.076.797.227 1.099.153.302.367.532.64.692.274.156.593.234.96.234.236 0 .453-.033.648-.1a1.349 1.349 0 00.833-.818l1.185.214a2.15 2.15 0 01-.51.918c-.243.26-.55.463-.918.608a3.427 3.427 0 01-1.251.214zM77.854 44.197v-6.44h1.21v1.023h.067c.118-.347.324-.62.62-.818a1.771 1.771 0 011.013-.302 5.336 5.336 0 01.532.03v1.199a2.22 2.22 0 00-.268-.046 2.551 2.551 0 00-.385-.03c-.296 0-.56.063-.791.19a1.4 1.4 0 00-.746 1.261v3.933h-1.252zM86.61 39.33l-1.135.2a1.349 1.349 0 00-.227-.415 1.118 1.118 0 00-.41-.323 1.483 1.483 0 00-.649-.125c-.354 0-.65.08-.888.239-.237.156-.356.359-.356.608 0 .215.08.388.24.52.158.13.415.239.77.322l1.021.235c.592.137 1.033.348 1.323.633.29.285.436.656.436 1.111 0 .386-.112.73-.335 1.032-.22.299-.53.534-.925.704-.394.17-.85.256-1.37.256-.72 0-1.307-.154-1.762-.461-.455-.31-.735-.75-.838-1.32l1.21-.185c.076.315.23.554.465.717.234.159.54.239.917.239.41 0 .738-.086.984-.256.245-.173.368-.385.368-.633a.658.658 0 00-.226-.508c-.148-.137-.375-.24-.682-.31l-1.089-.239c-.6-.137-1.044-.355-1.331-.654-.285-.3-.427-.678-.427-1.136 0-.38.106-.713.318-.998.212-.285.505-.508.88-.667a3.205 3.205 0 011.285-.243c.694 0 1.242.15 1.64.453.4.299.664.7.792 1.203zM38.173 54c-.407 0-.776-.075-1.105-.226a1.863 1.863 0 01-.783-.667c-.19-.29-.285-.647-.285-1.07 0-.363.07-.662.21-.896.139-.235.327-.421.565-.558a2.95 2.95 0 01.795-.31c.293-.07.592-.123.896-.16.385-.044.698-.08.938-.109.24-.03.415-.08.523-.147.11-.067.164-.176.164-.327v-.029c0-.366-.104-.65-.31-.851-.204-.201-.508-.302-.913-.302-.421 0-.754.094-.996.28-.24.185-.407.39-.499.617l-1.176-.268c.14-.391.343-.707.611-.948.27-.243.582-.419.934-.528a3.64 3.64 0 011.11-.168c.256 0 .528.031.816.093.29.058.56.167.812.327.254.159.462.387.624.683.162.294.243.675.243 1.145v4.276h-1.223v-.88h-.05a1.783 1.783 0 01-.364.478c-.162.157-.37.286-.624.39a2.417 2.417 0 01-.913.155zm.272-1.006c.346 0 .642-.069.888-.206.248-.137.437-.316.565-.536.131-.224.197-.463.197-.717v-.83a.652.652 0 01-.26.125 4.03 4.03 0 01-.431.097c-.162.025-.32.048-.473.07l-.385.051c-.243.031-.465.083-.666.155a1.142 1.142 0 00-.477.315c-.118.134-.176.313-.176.536 0 .31.114.546.343.705.229.156.52.235.875.235zM47.244 48.99l-1.135.2a1.349 1.349 0 00-.226-.414 1.12 1.12 0 00-.41-.323 1.485 1.485 0 00-.65-.126c-.354 0-.65.08-.887.239-.237.157-.356.36-.356.608 0 .215.08.389.24.52.158.131.415.239.77.323l1.021.235c.592.136 1.033.348 1.323.633.29.285.436.655.436 1.11 0 .387-.112.73-.335 1.032-.22.3-.53.534-.926.705-.393.17-.85.255-1.369.255-.72 0-1.308-.153-1.763-.46-.454-.311-.734-.751-.837-1.322l1.21-.184c.075.316.23.555.465.717.234.16.54.239.917.239.41 0 .738-.085.984-.256.245-.173.368-.384.368-.633a.658.658 0 00-.226-.507c-.148-.137-.375-.24-.682-.31l-1.089-.24c-.6-.136-1.044-.355-1.332-.654-.284-.299-.427-.678-.427-1.136 0-.38.106-.713.319-.998.212-.285.505-.507.879-.666a3.205 3.205 0 011.285-.244c.695 0 1.242.151 1.642.453.399.3.663.7.791 1.203zM52.976 48.99l-1.135.2a1.347 1.347 0 00-.226-.414 1.12 1.12 0 00-.41-.323 1.484 1.484 0 00-.65-.126c-.354 0-.65.08-.887.239-.237.157-.356.36-.356.608 0 .215.08.389.239.52.159.131.416.239.77.323l1.022.235c.592.136 1.033.348 1.323.633.29.285.436.655.436 1.11 0 .387-.112.73-.335 1.032-.221.3-.53.534-.926.705-.393.17-.85.255-1.369.255-.72 0-1.308-.153-1.763-.46-.455-.311-.734-.751-.837-1.322l1.21-.184c.075.316.23.555.465.717.234.16.54.239.917.239.41 0 .738-.085.984-.256.245-.173.368-.384.368-.633a.658.658 0 00-.226-.507c-.148-.137-.376-.24-.683-.31l-1.088-.24c-.6-.136-1.044-.355-1.332-.654-.284-.299-.427-.678-.427-1.136 0-.38.106-.713.319-.998.212-.285.505-.507.879-.666a3.205 3.205 0 011.285-.244c.695 0 1.242.151 1.642.453.399.3.662.7.79 1.203zM56.597 53.987c-.602 0-1.129-.138-1.578-.415a2.797 2.797 0 01-1.047-1.161c-.248-.498-.373-1.08-.373-1.744 0-.668.125-1.253.373-1.753.249-.5.597-.889 1.047-1.166.45-.276.976-.415 1.578-.415.603 0 1.13.139 1.579.415.45.277.798.666 1.047 1.166.248.5.372 1.085.372 1.753 0 .665-.124 1.246-.372 1.744a2.798 2.798 0 01-1.047 1.161c-.45.277-.976.415-1.579.415zm.005-1.052c.39 0 .714-.103.971-.31.257-.207.447-.482.57-.826a3.29 3.29 0 00.188-1.136c0-.411-.063-.789-.189-1.133a1.845 1.845 0 00-.569-.834c-.257-.21-.58-.314-.971-.314-.394 0-.72.104-.98.314-.257.21-.448.488-.574.834a3.344 3.344 0 00-.184 1.133c0 .413.061.792.184 1.136.126.344.317.619.574.826.26.207.586.31.98.31zM63.112 53.987c-.622 0-1.158-.14-1.608-.423a2.802 2.802 0 01-1.03-1.178c-.24-.5-.36-1.074-.36-1.72 0-.653.123-1.23.369-1.731a2.825 2.825 0 011.038-1.178c.447-.282.973-.424 1.579-.424.488 0 .924.091 1.306.273.382.179.69.43.925.755.238.324.379.703.423 1.136h-1.218a1.462 1.462 0 00-.46-.78c-.238-.218-.556-.327-.955-.327-.35 0-.655.092-.917.277-.26.181-.462.441-.608.78-.145.335-.217.732-.217 1.19 0 .47.071.875.213 1.216.143.341.344.605.603.793.263.187.571.28.926.28.237 0 .452-.043.644-.13.196-.089.36-.216.49-.38.134-.166.228-.364.28-.596h1.22c-.045.416-.18.788-.407 1.115a2.338 2.338 0 01-.909.771c-.376.188-.819.281-1.327.281z" fill="#333"/><path d="M66.504 53.857v-6.44h1.251v6.44h-1.251zm.632-7.434a.795.795 0 01-.561-.218.71.71 0 01-.23-.528.7.7 0 01.23-.528.787.787 0 01.56-.222c.218 0 .404.074.558.222a.695.695 0 01.234.528c0 .204-.078.38-.234.529a.78.78 0 01-.557.217zM70.722 54c-.408 0-.776-.075-1.106-.226a1.863 1.863 0 01-.783-.667c-.19-.29-.284-.647-.284-1.07 0-.363.07-.662.209-.896.14-.235.328-.421.565-.558a2.95 2.95 0 01.796-.31c.293-.07.591-.123.896-.16.385-.044.698-.08.938-.109.24-.03.414-.08.523-.147.109-.067.163-.176.163-.327v-.029c0-.366-.103-.65-.31-.851-.203-.201-.507-.302-.912-.302-.422 0-.754.094-.997.28-.24.185-.406.39-.498.617l-1.177-.268c.14-.391.344-.707.612-.948.27-.243.582-.419.933-.528a3.64 3.64 0 011.11-.168c.257 0 .529.031.816.093.29.058.562.167.813.327.254.159.462.387.624.683.161.294.242.675.242 1.145v4.276h-1.222v-.88h-.05c-.081.162-.203.321-.365.478-.162.157-.37.286-.623.39a2.418 2.418 0 01-.913.155zm.272-1.006c.346 0 .642-.069.888-.206.248-.137.436-.316.565-.536.13-.224.197-.463.197-.717v-.83a.65.65 0 01-.26.125c-.126.037-.27.069-.431.097-.162.025-.32.048-.473.07l-.386.051c-.242.031-.464.083-.665.155a1.142 1.142 0 00-.478.315c-.117.134-.176.313-.176.536 0 .31.115.546.344.705.229.156.52.235.875.235zM77.975 47.417v1.006h-3.512v-1.006h3.513zm-2.57-1.543h1.252v6.093c0 .243.036.426.109.549.072.12.165.202.28.247.117.042.244.063.381.063.1 0 .188-.007.264-.021l.176-.033.226 1.035a2.453 2.453 0 01-.812.134 2.201 2.201 0 01-.922-.176 1.58 1.58 0 01-.69-.57c-.176-.257-.264-.58-.264-.969v-6.352zM78.77 53.857v-6.44h1.253v6.44H78.77zm.633-7.434a.795.795 0 01-.561-.218.71.71 0 01-.23-.528.7.7 0 01.23-.528.787.787 0 01.561-.222c.218 0 .403.074.557.222a.695.695 0 01.234.528c0 .204-.078.38-.234.529a.78.78 0 01-.557.217zM83.826 53.987c-.602 0-1.129-.138-1.578-.415a2.797 2.797 0 01-1.047-1.161c-.248-.498-.372-1.08-.372-1.744 0-.668.124-1.253.372-1.753.249-.5.598-.889 1.047-1.166.45-.276.975-.415 1.578-.415.603 0 1.13.139 1.579.415.45.277.798.666 1.047 1.166.248.5.372 1.085.372 1.753 0 .665-.124 1.246-.372 1.744a2.797 2.797 0 01-1.047 1.161c-.45.277-.976.415-1.579.415zm.005-1.052c.39 0 .714-.103.971-.31.257-.207.447-.482.57-.826a3.29 3.29 0 00.188-1.136c0-.411-.063-.789-.189-1.133a1.846 1.846 0 00-.569-.834c-.257-.21-.58-.314-.971-.314-.394 0-.72.104-.98.314-.257.21-.448.488-.574.834a3.344 3.344 0 00-.184 1.133c0 .413.061.792.184 1.136.126.344.317.619.574.826.26.207.586.31.98.31zM88.884 50.033v3.824h-1.252v-6.44h1.202v1.048h.08a1.84 1.84 0 01.695-.821c.318-.207.718-.31 1.201-.31.438 0 .822.092 1.152.276.329.182.584.453.766.813.181.361.272.807.272 1.338v4.096h-1.252v-3.945c0-.467-.121-.832-.364-1.094-.243-.266-.577-.399-1-.399-.291 0-.55.063-.775.189-.224.126-.401.31-.532.553-.129.24-.193.532-.193.872zM71.577 90V75.455h9.46v2.208h-6.825v3.95h6.335v2.208h-6.335v3.97h6.882V90h-9.517zM85.183 83.608V90h-2.571V79.091h2.457v1.854h.128c.251-.611.651-1.096 1.2-1.456.554-.36 1.239-.54 2.053-.54.753 0 1.409.16 1.967.483.564.322 1 .788 1.307 1.399.313.61.467 1.352.462 2.223V90h-2.571v-6.548c0-.73-.19-1.3-.568-1.712-.374-.412-.893-.618-1.556-.618-.45 0-.85.1-1.2.299a2.068 2.068 0 00-.817.845c-.194.369-.29.816-.29 1.342zM98.63 90.213c-1.095 0-2.04-.227-2.835-.682a4.618 4.618 0 01-1.825-1.946c-.426-.842-.64-1.834-.64-2.976 0-1.122.214-2.107.64-2.954.43-.852 1.032-1.515 1.804-1.989.772-.478 1.678-.717 2.72-.717.672 0 1.307.109 1.904.327a4.3 4.3 0 011.59.994c.464.45.829 1.023 1.094 1.719.265.691.398 1.515.398 2.471v.789h-8.942v-1.733h6.477a2.76 2.76 0 00-.319-1.314 2.324 2.324 0 00-.874-.916c-.369-.223-.8-.334-1.292-.334-.526 0-.988.128-1.385.383-.398.251-.708.583-.93.995a2.86 2.86 0 00-.335 1.342v1.513c0 .634.117 1.179.349 1.633.231.45.556.796.972 1.037.417.237.905.355 1.464.355a3.11 3.11 0 001.015-.156 2.26 2.26 0 00.789-.476c.222-.208.39-.466.504-.774l2.4.27a3.737 3.737 0 01-.866 1.662c-.421.469-.961.833-1.619 1.094-.659.255-1.411.383-2.259.383zM104.655 90V79.091h2.493v1.818h.114c.198-.63.539-1.115 1.022-1.456a2.815 2.815 0 011.669-.518c.142 0 .301.007.476.021.18.01.329.026.448.05v2.365a2.707 2.707 0 00-.519-.1 4.764 4.764 0 00-.675-.05c-.468 0-.89.102-1.264.306-.369.199-.66.476-.873.831-.213.355-.32.765-.32 1.229V90h-2.571zM115.88 94.276c-.924 0-1.717-.123-2.379-.37-.663-.246-1.196-.575-1.598-.987a3.416 3.416 0 01-.839-1.356L113.38 91c.104.195.255.393.454.597.199.208.467.381.803.519.341.142.769.213 1.285.213.73 0 1.333-.176 1.811-.526.479-.35.718-.916.718-1.697V88.04h-.128a3.683 3.683 0 01-.582.817c-.251.279-.585.513-1.002.703-.412.19-.93.284-1.555.284a4.484 4.484 0 01-2.28-.59c-.677-.397-1.217-.99-1.619-1.775-.398-.791-.597-1.78-.597-2.969 0-1.198.199-2.209.597-3.033.402-.828.944-1.456 1.626-1.882a4.18 4.18 0 012.28-.646c.639 0 1.165.109 1.577.327.416.213.748.47.994.774.246.298.433.58.561.845h.142V79.09h2.536v11.087c0 .913-.223 1.673-.668 2.28-.445.61-1.054 1.065-1.825 1.363-.772.303-1.648.455-2.628.455zm.021-6.45c.545 0 1.009-.132 1.392-.397.384-.265.675-.646.874-1.143.199-.498.298-1.094.298-1.79 0-.687-.099-1.288-.298-1.804-.194-.516-.483-.916-.867-1.2-.379-.29-.845-.434-1.399-.434-.573 0-1.051.15-1.435.448-.383.298-.672.708-.866 1.228-.194.517-.291 1.104-.291 1.762 0 .667.097 1.252.291 1.754.199.497.49.885.874 1.165.388.274.864.412 1.427.412zM124.233 94.07c-.35 0-.674-.029-.973-.086a3.276 3.276 0 01-.703-.191l.597-1.996c.559.16 1.027.187 1.406.078.384-.104.699-.457.945-1.058l.22-.59-3.956-11.136h2.727l2.514 8.239h.114l2.521-8.239 2.749.014-4.382 12.216a4.948 4.948 0 01-.81 1.47 3.317 3.317 0 01-1.236.945c-.483.222-1.06.334-1.733.334zM43.821 91.455h3.225l4.318 10.539h.17l4.319-10.54h3.224V106H56.55v-9.993h-.135l-4.02 9.95h-1.89l-4.02-9.971h-.134V106H43.82V91.455zM63.972 106.22c-.691 0-1.314-.123-1.868-.369a3.047 3.047 0 01-1.307-1.108c-.317-.488-.476-1.089-.476-1.804 0-.616.114-1.125.341-1.527.228-.402.538-.724.93-.966a4.698 4.698 0 011.329-.547c.497-.128 1.01-.22 1.541-.277.64-.066 1.158-.125 1.555-.177.398-.057.687-.142.867-.256.184-.118.277-.3.277-.547V98.6c0-.536-.159-.95-.476-1.243-.317-.294-.774-.44-1.37-.44-.63 0-1.13.136-1.5.411-.364.275-.61.6-.738.973l-2.4-.34c.189-.664.501-1.218.937-1.663.436-.45.968-.786 1.598-1.008a6.112 6.112 0 012.088-.341c.526 0 1.049.061 1.57.185.52.123.996.326 1.427.61.431.28.777.66 1.037 1.144.265.483.398 1.087.398 1.81V106H67.26v-1.499h-.085a3.14 3.14 0 01-.66.853c-.28.26-.633.471-1.059.632-.421.156-.916.234-1.484.234zm.668-1.889c.516 0 .963-.102 1.342-.305.379-.209.67-.483.874-.824a2.1 2.1 0 00.312-1.115v-1.286c-.08.066-.218.128-.412.185-.19.057-.402.106-.64.149-.236.043-.47.08-.702.114l-.604.085a4.452 4.452 0 00-1.03.256 1.707 1.707 0 00-.717.497c-.175.208-.263.478-.263.809 0 .474.173.831.519 1.073.345.241.785.362 1.32.362zM73.888 99.608V106h-2.57V95.091h2.457v1.854h.127a3.118 3.118 0 011.2-1.456c.555-.36 1.239-.54 2.053-.54.753 0 1.409.16 1.968.483.563.322.999.788 1.306 1.399.313.61.467 1.352.462 2.223V106H78.32v-6.548c0-.73-.19-1.3-.568-1.712-.374-.412-.893-.618-1.556-.618-.45 0-.85.1-1.2.299a2.069 2.069 0 00-.817.845c-.194.369-.29.816-.29 1.342zM85.644 106.22c-.692 0-1.314-.123-1.868-.369a3.047 3.047 0 01-1.307-1.108c-.317-.488-.476-1.089-.476-1.804 0-.616.114-1.125.341-1.527.227-.402.538-.724.93-.966a4.698 4.698 0 011.329-.547c.497-.128 1.01-.22 1.54-.277.64-.066 1.159-.125 1.556-.177.398-.057.687-.142.867-.256.184-.118.277-.3.277-.547V98.6c0-.536-.159-.95-.476-1.243-.317-.294-.774-.44-1.37-.44-.63 0-1.13.136-1.5.411-.364.275-.61.6-.738.973l-2.4-.34c.189-.664.501-1.218.937-1.663.436-.45.968-.786 1.598-1.008a6.112 6.112 0 012.088-.341c.526 0 1.049.061 1.57.185.52.123.996.326 1.427.61.431.28.777.66 1.037 1.144.265.483.398 1.087.398 1.81V106h-2.472v-1.499h-.085a3.141 3.141 0 01-.66.853c-.28.26-.633.471-1.059.632-.421.156-.916.234-1.484.234zm.667-1.889c.516 0 .964-.102 1.343-.305.379-.209.67-.483.873-.824a2.1 2.1 0 00.313-1.115v-1.286c-.08.066-.218.128-.412.185-.19.057-.403.106-.64.149-.236.043-.47.08-.702.114l-.604.085a4.452 4.452 0 00-1.03.256 1.707 1.707 0 00-.717.497c-.175.208-.263.478-.263.809 0 .474.173.831.518 1.073.346.241.786.362 1.321.362zM97.733 110.276c-.923 0-1.716-.123-2.379-.37-.663-.246-1.195-.575-1.598-.987a3.412 3.412 0 01-.838-1.356l2.315-.562c.105.195.256.393.455.597a2.3 2.3 0 00.802.519c.341.142.77.213 1.286.213.73 0 1.333-.176 1.811-.526.478-.35.717-.916.717-1.697v-2.067h-.128a3.646 3.646 0 01-.582.817c-.25.279-.585.513-1.001.703-.412.189-.93.284-1.556.284a4.483 4.483 0 01-2.28-.59c-.677-.397-1.216-.989-1.619-1.775-.398-.791-.596-1.781-.596-2.969 0-1.198.198-2.209.596-3.033.403-.828.945-1.456 1.627-1.882a4.18 4.18 0 012.28-.646c.639 0 1.164.109 1.576.327.417.213.748.47.994.774.247.298.434.58.561.845h.143V95.09h2.535v11.087c0 .913-.222 1.673-.668 2.279-.445.611-1.053 1.066-1.825 1.364-.772.303-1.648.455-2.628.455zm.022-6.449c.544 0 1.008-.133 1.392-.398.383-.265.674-.646.873-1.143.199-.498.299-1.094.299-1.79 0-.687-.1-1.288-.299-1.804-.194-.516-.483-.916-.866-1.2-.379-.29-.845-.434-1.4-.434-.572 0-1.05.15-1.434.448-.384.298-.672.708-.866 1.228-.195.517-.292 1.104-.292 1.762 0 .667.097 1.252.291 1.754.2.497.49.885.874 1.165.388.274.864.412 1.428.412zM109.319 106.213c-1.094 0-2.039-.227-2.834-.682a4.621 4.621 0 01-1.826-1.946c-.426-.843-.639-1.834-.639-2.976 0-1.122.213-2.107.639-2.954.431-.852 1.033-1.515 1.804-1.989.772-.478 1.679-.717 2.721-.717.672 0 1.306.109 1.903.327a4.303 4.303 0 011.591.994c.464.45.829 1.023 1.094 1.719.265.691.397 1.515.397 2.471v.789h-8.941v-1.733h6.477a2.761 2.761 0 00-.32-1.314 2.32 2.32 0 00-.873-.916c-.37-.223-.8-.334-1.293-.334-.525 0-.987.128-1.385.383-.398.251-.708.583-.93.995a2.862 2.862 0 00-.334 1.342v1.513c0 .634.116 1.179.348 1.633.232.45.556.796.973 1.037.417.237.904.355 1.463.355.374 0 .713-.052 1.016-.156.303-.109.565-.267.788-.476.223-.208.391-.466.504-.774l2.401.27a3.745 3.745 0 01-.867 1.662c-.421.469-.961.833-1.619 1.094-.658.255-1.411.383-2.258.383zM115.344 106V95.091h2.458v1.854h.128a2.89 2.89 0 011.129-1.463c.526-.356 1.153-.533 1.882-.533.739 0 1.361.18 1.868.54.511.355.871.84 1.079 1.456h.114a2.985 2.985 0 011.222-1.45c.577-.364 1.262-.546 2.052-.546 1.004 0 1.823.317 2.458.952.634.634.951 1.56.951 2.777V106h-2.578v-6.925c0-.677-.18-1.172-.54-1.484-.359-.317-.8-.476-1.321-.476-.62 0-1.105.194-1.456.583-.345.383-.518.883-.518 1.498V106h-2.521v-7.031c0-.564-.171-1.013-.512-1.35-.336-.336-.776-.504-1.321-.504-.369 0-.705.095-1.008.284a1.984 1.984 0 00-.725.788c-.18.337-.27.73-.27 1.18V106h-2.571zM137.123 106.213c-1.094 0-2.038-.227-2.834-.682a4.62 4.62 0 01-1.825-1.946c-.426-.843-.639-1.834-.639-2.976 0-1.122.213-2.107.639-2.954.431-.852 1.032-1.515 1.804-1.989.772-.478 1.679-.717 2.72-.717a5.51 5.51 0 011.904.327 4.311 4.311 0 011.591.994c.464.45.828 1.023 1.093 1.719.265.691.398 1.515.398 2.471v.789h-8.942v-1.733h6.478a2.773 2.773 0 00-.32-1.314 2.323 2.323 0 00-.874-.916c-.369-.223-.8-.334-1.292-.334-.526 0-.987.128-1.385.383-.398.251-.708.583-.931.995a2.861 2.861 0 00-.333 1.342v1.513c0 .634.116 1.179.348 1.633.232.45.556.796.973 1.037.416.237.904.355 1.463.355.374 0 .712-.052 1.015-.156.303-.109.566-.267.789-.476.222-.208.39-.466.504-.774l2.401.27a3.755 3.755 0 01-.867 1.662c-.421.469-.961.833-1.619 1.094-.658.255-1.411.383-2.259.383zM145.72 99.608V106h-2.571V95.091h2.458v1.854h.127a3.115 3.115 0 011.201-1.456c.554-.36 1.238-.54 2.052-.54.753 0 1.409.16 1.968.483.563.322.999.788 1.306 1.399.313.61.467 1.352.462 2.223V106h-2.571v-6.548c0-.73-.189-1.3-.568-1.712-.374-.412-.893-.618-1.556-.618-.449 0-.849.1-1.2.299a2.067 2.067 0 00-.817.845c-.194.369-.291.816-.291 1.342zM159.784 95.091v1.989h-6.271V95.09h6.271zm-4.723-2.614h2.571v10.242c0 .345.052.611.156.795.109.18.251.303.426.37.176.066.37.099.583.099.161 0 .308-.012.44-.036.138-.023.242-.044.313-.063l.433 2.01a5.862 5.862 0 01-.59.156c-.25.057-.558.09-.923.099-.644.019-1.224-.078-1.74-.291a2.707 2.707 0 01-1.229-1.009c-.298-.454-.445-1.022-.44-1.704V92.477zM71.111 122H68.3l5.12-14.545h3.253L81.8 122h-2.812l-3.885-11.562h-.114L71.111 122zm.093-5.703h7.67v2.116h-7.67v-2.116zM83.487 122l-3.083-10.909h2.62l1.918 7.67h.1l1.96-7.67h2.593l1.96 7.628h.106l1.89-7.628h2.627L93.088 122h-2.677l-2.045-7.372h-.15L86.172 122h-2.684zM100.113 122.22c-.692 0-1.314-.123-1.868-.369a3.046 3.046 0 01-1.307-1.108c-.317-.488-.476-1.089-.476-1.804 0-.616.114-1.125.34-1.527.228-.402.538-.724.931-.966a4.704 4.704 0 011.328-.547c.498-.128 1.011-.22 1.542-.277a60.362 60.362 0 001.555-.177c.398-.057.687-.142.867-.256.184-.118.276-.301.276-.547v-.043c0-.535-.158-.949-.475-1.242-.318-.294-.775-.441-1.371-.441-.63 0-1.129.138-1.499.412-.364.275-.61.599-.738.973l-2.4-.341c.189-.663.501-1.217.937-1.662a4.08 4.08 0 011.598-1.008 6.119 6.119 0 012.088-.341c.525 0 1.048.061 1.569.185.521.123.997.326 1.428.61.431.28.776.661 1.037 1.144.265.483.398 1.086.398 1.811V122h-2.472v-1.499h-.085a3.159 3.159 0 01-.661.853 3.18 3.18 0 01-1.058.632c-.421.156-.916.234-1.484.234zm.667-1.889c.516 0 .964-.102 1.343-.305a2.27 2.27 0 00.873-.824c.208-.341.313-.713.313-1.115v-1.286c-.081.066-.218.128-.412.185-.19.057-.403.106-.64.149-.236.043-.471.08-.703.114l-.603.085a4.452 4.452 0 00-1.03.256 1.708 1.708 0 00-.718.497c-.175.208-.262.478-.262.809 0 .474.172.831.518 1.073.346.241.786.362 1.321.362zM107.458 122v-10.909h2.493v1.818h.113c.199-.63.54-1.115 1.023-1.456a2.82 2.82 0 011.669-.518c.142 0 .301.007.476.021.18.009.329.026.447.05v2.365a2.722 2.722 0 00-.518-.1 4.79 4.79 0 00-.675-.049c-.469 0-.89.101-1.264.305a2.24 2.24 0 00-.874.831 2.343 2.343 0 00-.319 1.229V122h-2.571zM117.987 122.192c-.858 0-1.625-.22-2.302-.661-.677-.44-1.212-1.079-1.605-1.917-.393-.838-.589-1.856-.589-3.054 0-1.212.199-2.235.596-3.068.403-.839.945-1.471 1.627-1.897a4.18 4.18 0 012.28-.646c.639 0 1.164.109 1.576.327.412.213.739.471.98.774.242.298.429.58.562.845h.106v-5.44h2.578V122h-2.528v-1.719h-.156a4.411 4.411 0 01-.576.845 3.152 3.152 0 01-.994.753c-.412.209-.93.313-1.555.313zm.717-2.11c.544 0 1.008-.146 1.392-.44.383-.298.675-.713.873-1.243.199-.53.299-1.148.299-1.853 0-.706-.1-1.319-.299-1.84-.194-.521-.482-.926-.866-1.214-.379-.289-.845-.434-1.399-.434-.573 0-1.051.149-1.435.448-.383.298-.672.71-.866 1.236-.194.525-.291 1.126-.291 1.804 0 .681.097 1.29.291 1.825.199.53.49.949.873 1.257.389.303.864.454 1.428.454zM134.158 113.974l-2.344.256a1.867 1.867 0 00-.348-.667 1.728 1.728 0 00-.653-.505c-.275-.128-.611-.191-1.009-.191-.535 0-.985.116-1.349.348-.36.232-.538.532-.533.902a.942.942 0 00.348.774c.242.199.639.362 1.193.49l1.861.397c1.032.223 1.799.576 2.301 1.059.507.483.763 1.115.767 1.896a2.963 2.963 0 01-.603 1.818c-.393.521-.94.928-1.641 1.222-.701.293-1.506.44-2.415.44-1.335 0-2.41-.279-3.224-.838-.815-.563-1.3-1.347-1.456-2.351l2.507-.241c.114.492.355.864.724 1.115.37.251.85.376 1.442.376.611 0 1.101-.125 1.47-.376.374-.251.561-.561.561-.931 0-.312-.12-.57-.362-.774-.237-.203-.606-.36-1.108-.469l-1.861-.39c-1.046-.218-1.82-.585-2.322-1.101-.502-.521-.75-1.179-.746-1.974-.004-.673.178-1.255.547-1.748.374-.497.893-.88 1.556-1.15.667-.275 1.437-.412 2.308-.412 1.278 0 2.284.272 3.018.817.739.544 1.196 1.28 1.371 2.208z" fill="#333"/></svg>
