<svg width="255" height="48" viewBox="0 0 255 48" fill="none" xmlns="http://www.w3.org/2000/svg">
    <path d="M35.7789 46.4915V13.7642H46.1979V46.4915H35.7789ZM41.0204 9.95029C39.5431 9.95029 38.2789 9.46733 37.2278 8.50142C36.1766 7.52131 35.6511 6.34233 35.6511 4.96449C35.6511 3.60085 36.1766 2.43608 37.2278 1.47017C38.2789 0.490057 39.536 0 40.9991 0C42.4763 0 43.7334 0.490057 44.7704 1.47017C45.8215 2.43608 46.3471 3.60085 46.3471 4.96449C46.3471 6.34233 45.8215 7.52131 44.7704 8.50142C43.7334 9.46733 42.4834 9.95029 41.0204 9.95029Z" fill="#2172EC"/>
    <path d="M64.5067 47.1094C61.0692 47.1094 58.1146 46.4062 55.643 45C53.1856 43.5795 51.2893 41.6051 49.9541 39.0767C48.6331 36.5341 47.9726 33.5867 47.9726 30.2344C47.9726 26.8679 48.6331 23.9205 49.9541 21.392C51.2893 18.8494 53.1856 16.875 55.643 15.4688C58.1146 14.0483 61.0692 13.3381 64.5067 13.3381C67.9442 13.3381 70.8916 14.0483 73.349 15.4688C75.8206 16.875 77.7169 18.8494 79.0379 21.392C80.3731 23.9205 81.0408 26.8679 81.0408 30.2344C81.0408 33.5867 80.3731 36.5341 79.0379 39.0767C77.7169 41.6051 75.8206 43.5795 73.349 45C70.8916 46.4062 67.9442 47.1094 64.5067 47.1094ZM64.5706 39.2472C65.8206 39.2472 66.8788 38.8636 67.7453 38.0966C68.6118 37.3296 69.2723 36.2642 69.7268 34.9006C70.1956 33.5369 70.43 31.9602 70.43 30.1705C70.43 28.3523 70.1956 26.7614 69.7268 25.3977C69.2723 24.0341 68.6118 22.9688 67.7453 22.2017C66.8788 21.4347 65.8206 21.0511 64.5706 21.0511C63.278 21.0511 62.1842 21.4347 61.2893 22.2017C60.4087 22.9688 59.7339 24.0341 59.2652 25.3977C58.8106 26.7614 58.5834 28.3523 58.5834 30.1705C58.5834 31.9602 58.8106 33.5369 59.2652 34.9006C59.7339 36.2642 60.4087 37.3296 61.2893 38.0966C62.1842 38.8636 63.278 39.2472 64.5706 39.2472Z" fill="#2172EC"/>
    <path d="M98.0551 47.1094C94.6034 47.1094 91.6418 46.3992 89.1702 44.9787C86.7128 43.5582 84.8236 41.5838 83.5025 39.0554C82.1815 36.5128 81.521 33.5724 81.521 30.2344C81.521 26.8821 82.1815 23.9418 83.5025 21.4134C84.8378 18.8707 86.7341 16.8892 89.1915 15.4688C91.6631 14.0483 94.6105 13.3381 98.0338 13.3381C101.059 13.3381 103.694 13.8849 105.939 14.9787C108.197 16.0724 109.959 17.6207 111.223 19.6236C112.501 21.6122 113.176 23.9489 113.247 26.6335H103.51C103.311 24.9574 102.743 23.6435 101.805 22.6918C100.882 21.7401 99.6744 21.2642 98.1829 21.2642C96.9756 21.2642 95.9173 21.6051 95.0082 22.2869C94.0991 22.9545 93.3889 23.9489 92.8775 25.2699C92.3804 26.5767 92.1318 28.196 92.1318 30.1278C92.1318 32.0597 92.3804 33.6932 92.8775 35.0284C93.3889 36.3494 94.0991 37.3508 95.0082 38.0327C95.9173 38.7003 96.9756 39.0341 98.1829 39.0341C99.1489 39.0341 100.001 38.8281 100.74 38.4162C101.493 38.0043 102.11 37.4006 102.593 36.6051C103.076 35.7955 103.382 34.8153 103.51 33.6648H113.247C113.147 36.3636 112.473 38.7216 111.223 40.7386C109.987 42.7557 108.247 44.3253 106.003 45.4474C103.772 46.5554 101.123 47.1094 98.0551 47.1094Z" fill="#2172EC"/>
    <path d="M125.398 2.85511V46.4915H114.979V2.85511H125.398Z" fill="#2172EC"/>
    <path d="M128.43 46.4915V13.7642H138.849V46.4915H128.43ZM133.671 9.95029C132.194 9.95029 130.93 9.46733 129.879 8.50142C128.827 7.52131 128.302 6.34233 128.302 4.96449C128.302 3.60085 128.827 2.43608 129.879 1.47017C130.93 0.490057 132.187 0 133.65 0C135.127 0 136.384 0.490057 137.421 1.47017C138.472 2.43608 138.998 3.60085 138.998 4.96449C138.998 6.34233 138.472 7.52131 137.421 8.50142C136.384 9.46733 135.134 9.95029 133.671 9.95029Z" fill="#2172EC"/>
    <path d="M141.88 46.4915V13.7642H151.788V19.7727H152.15C152.832 17.7841 153.983 16.2145 155.602 15.0639C157.221 13.9134 159.153 13.3381 161.398 13.3381C163.67 13.3381 165.616 13.9205 167.236 15.0852C168.855 16.25 169.885 17.8125 170.325 19.7727H170.666C171.277 17.8267 172.47 16.2713 174.246 15.1065C176.021 13.9276 178.116 13.3381 180.531 13.3381C183.628 13.3381 186.142 14.3324 188.074 16.321C190.005 18.2955 190.971 21.0085 190.971 24.4602V46.4915H180.552V26.8466C180.552 25.2131 180.133 23.9702 179.295 23.1179C178.457 22.2514 177.371 21.8182 176.035 21.8182C174.601 21.8182 173.471 22.2869 172.648 23.2244C171.838 24.1477 171.433 25.3906 171.433 26.9531V46.4915H161.419V26.7401C161.419 25.2202 161.007 24.0199 160.183 23.1392C159.359 22.2585 158.273 21.8182 156.923 21.8182C156.014 21.8182 155.211 22.0384 154.515 22.4787C153.819 22.9048 153.273 23.5156 152.875 24.3111C152.491 25.1065 152.299 26.044 152.299 27.1236V46.4915H141.88Z" fill="#2172EC"/>
    <path d="M209.126 47.1094C205.702 47.1094 202.748 46.4347 200.262 45.0852C197.79 43.7216 195.887 41.7827 194.552 39.2685C193.231 36.7401 192.57 33.7358 192.57 30.2557C192.57 26.875 193.238 23.9205 194.573 21.392C195.908 18.8494 197.79 16.875 200.219 15.4688C202.648 14.0483 205.511 13.3381 208.806 13.3381C211.136 13.3381 213.266 13.7003 215.198 14.4247C217.13 15.1491 218.799 16.2216 220.205 17.642C221.611 19.0625 222.705 20.8168 223.486 22.9048C224.268 24.9787 224.658 27.358 224.658 30.0426V32.642H196.214V26.5909H214.964C214.95 25.483 214.687 24.4957 214.175 23.6293C213.664 22.7628 212.961 22.0881 212.066 21.6051C211.185 21.108 210.17 20.8594 209.019 20.8594C207.854 20.8594 206.81 21.1222 205.887 21.6477C204.964 22.1591 204.232 22.8622 203.692 23.7571C203.153 24.6378 202.869 25.6392 202.84 26.7614V32.919C202.84 34.2543 203.103 35.4261 203.628 36.4347C204.154 37.429 204.9 38.2031 205.866 38.7571C206.832 39.3111 207.982 39.5881 209.317 39.5881C210.241 39.5881 211.079 39.4602 211.832 39.2045C212.584 38.9489 213.231 38.5724 213.771 38.0753C214.31 37.5781 214.715 36.9673 214.985 36.2429L224.552 36.5199C224.154 38.6648 223.28 40.5327 221.931 42.1236C220.596 43.7003 218.842 44.929 216.668 45.8097C214.495 46.6761 211.981 47.1094 209.126 47.1094Z" fill="#2172EC"/>
    <path d="M232.775 13.7642L238.165 24.5455L243.748 13.7642H254.252L245.111 30.1278L254.593 46.4915H244.174L238.165 35.625L232.306 46.4915H221.738L231.24 30.1278L222.206 13.7642H232.775Z" fill="#2172EC"/>
    <path d="M0.500003 31.0706L0.500003 31.0704L0.505563 1.68587L11.5345 5.04843L11.5344 31.0703L11.5345 31.0742C11.5595 34.2729 14.2382 36.8212 17.5057 36.8212C20.7858 36.8212 23.4769 34.2434 23.4769 31.0318C23.4769 27.8202 20.7858 25.2424 17.5057 25.2424L17.5024 25.2424C16.8637 25.2466 16.2275 25.3509 15.6227 25.5513V14.7637C16.2469 14.6947 16.8755 14.6628 17.5057 14.6628H17.5111C26.9137 14.6682 34.5055 22.0421 34.5 31.092C34.4945 40.1417 26.8917 47.5051 17.4889 47.4997C8.08626 47.4944 0.494493 40.1204 0.500003 31.0706Z" fill="#2172EC" stroke="white"/>
</svg>
