<?xml version="1.0" standalone="no"?>
<!DOCTYPE svg PUBLIC "-//W3C//DTD SVG 20010904//EN"
 "http://www.w3.org/TR/2001/REC-SVG-20010904/DTD/svg10.dtd">
<svg version="1.0" xmlns="http://www.w3.org/2000/svg"
 width="1000.000000pt" height="1000.000000pt" viewBox="0 0 1000.000000 1000.000000"
 preserveAspectRatio="xMidYMid meet">
<metadata>
Created by potrace 1.14, written by Peter Selinger 2001-2017
</metadata>
<g transform="translate(0.000000,1000.000000) scale(0.100000,-0.100000)"
fill="#000000" stroke="none">
<path d="M2220 6217 c0 -1604 4 -2460 10 -2528 6 -57 24 -170 40 -250 101
-494 349 -941 726 -1309 158 -153 249 -227 424 -342 332 -219 745 -376 1157
-438 179 -28 518 -37 704 -21 684 63 1317 354 1779 821 296 298 508 640 634
1022 135 411 157 884 60 1316 -143 642 -553 1219 -1139 1605 -369 243 -825
403 -1285 452 -140 15 -425 20 -542 8 l-68 -6 0 -850 c0 -789 1 -849 17 -843
76 30 255 46 380 35 511 -46 903 -454 903 -939 0 -505 -409 -914 -946 -947
-292 -17 -579 91 -785 296 -123 124 -201 256 -251 426 l-23 80 -3 2155 -3
2155 -880 260 c-484 143 -886 261 -894 263 -13 3 -15 -297 -15 -2421z"/>
</g>
</svg>
