<svg id="Layer_1" data-name="Layer 1" xmlns="http://www.w3.org/2000/svg" viewBox="0 0 5784.24 3796.84"><defs><style>.cls-1{fill:#58595b}.cls-2{fill:#d2c4ac}.cls-3{fill:#b99e8b}.cls-4{fill:#e9e1ca}.cls-7{fill:#b9baa6}.cls-8{fill:#ffd25e}.cls-9{fill:#f3ba53}.cls-10{fill:#b68b3e}.cls-11{fill:#424344}.cls-12{fill:#1e3df4}.cls-13{fill:#1649ef}.cls-15{fill:#bcbec0}.cls-18{fill:#182cb7}.cls-20{fill:#939598}.cls-24{fill:#c9c3bd}.cls-25{fill:#f5f0f0}.cls-27{fill:#635f5b}.cls-28{fill:#e2d3d3}.cls-31{fill:#bac7d7}.cls-32{fill:#3f638f}.cls-38{fill:#b79fa2}.cls-39{fill:#f1f2f2}.cls-42{fill:#b5b5b5}.cls-49{fill:#39b54a}.cls-51{fill:#1b75bc}.cls-54{fill:#662d91}.cls-55{fill:#eab7bc}.cls-67{fill:#8c3778}</style></defs><path class="cls-1" d="M5142.56 2172.1L3019.5 3393.77 730.46 2072.08 2873.82 849.71 5142.56 2172.1z"/><path class="cls-2" d="M2673.07 842.34l126.97-73.13 2343.79 1353.32-127.56 74.13-2343.2-1354.32z"/><path class="cls-3" d="M2791.61 910.73l.3 49.2 2224.36 1285.91v-49.2L2791.61 910.73z"/><path class="cls-4" d="M5143.83 2122.5v49.2l-127.56 74.14v-49.2l127.56-74.14z"/><path fill="#cfd3bc" d="M5101.62 2123.85l-85.35 49.13v-147.45l85.35-49.28v147.6z"/><path fill="#767c6d" d="M2801.61 893.6V746l2214.66 1279.53v147.45L2801.61 893.6z"/><path class="cls-7" d="M2801.61 746l85.21-49.21 2214.8 1279.46-85.35 49.28L2801.61 746zM3757.41 1691.3l19.38-11.19 503.63 290.94-19.41 11.21-503.6-290.96zM3456.4 1877.03l17.29-9.98 449.48 259.65-17.32 10.01-449.45-259.68z"/><path class="cls-8" d="M3547.35 1806.92L3761 1683.56l35.61 20.56-213.65 123.36-35.61-20.56z"/><path class="cls-9" d="M3582.96 1868.6v-41.12l213.65-123.36v41.12l-213.65 123.36z"/><path class="cls-10" d="M3547.35 1806.92v41.12l35.61 20.56v-41.12l-35.61-20.56z"/><path class="cls-7" d="M3125.92 2091.42l17.3-9.98 449.48 259.65-17.32 10.01-449.46-259.68z"/><path class="cls-8" d="M3216.88 2021.31l213.65-123.36 35.6 20.56-213.64 123.36-35.61-20.56z"/><path class="cls-9" d="M3252.49 2082.99v-41.12l213.64-123.36v41.12l-213.64 123.36z"/><path class="cls-10" d="M3216.88 2021.31v41.12l35.61 20.56v-41.12l-35.61-20.56z"/><path class="cls-11" d="M1318.56 2064.39l-9.68-322.18 807.54-480.55-349.32 576.1-448.54 226.63z"/><path class="cls-7" d="M2665.17 2352.41l17.29-9.98 449.49 259.65-17.32 10.01-449.46-259.68zM2334.7 2566.8l17.29-9.98 449.48 259.65-17.32 10-449.45-259.67z"/><path class="cls-8" d="M2425.65 2496.68l213.65-123.36 35.61 20.57-213.65 123.35-35.61-20.56z"/><path class="cls-9" d="M2461.26 2558.36v-41.12l213.65-123.35v41.12l-213.65 123.35z"/><path class="cls-10" d="M2425.65 2496.68v41.12l35.61 20.56v-41.12l-35.61-20.56z"/><path class="cls-11" d="M3574.29 1874.84l463.11 274.88 259.12-159.71-433.76-276.48-288.47 161.31z"/><path class="cls-12" d="M3597.58 1730.39l207.25-119.67 165.8 95.73-207.25 119.67-165.8-95.73z"/><path class="cls-12" d="M3680.48 1682.52l207.25-119.66 248.69 143.59-207.24 119.67-248.7-143.6z"/><path class="cls-13" d="M3929.18 1921.85l207.24-119.67 165.8 95.73-207.25 119.67-165.79-95.73z"/><path fill="#414042" d="M3721.93 1939.08l40.59-24.43-26.13-15.09-14.46 39.52z"/><path class="cls-15" d="M4302.22 1897.91v95.74l-207.25 119.66v-95.73l207.25-119.67z"/><path fill="#a9ddf3" d="M4302.22 1897.91v64.58l-207.25 119.66v-64.57l207.25-119.67z"/><path fill="#bd8a4e" d="M4260.77 1921.85v64.53l-124.35 71.8v-64.53l124.35-71.8z"/><path class="cls-18" d="M4094.97 2017.58l-124.34-71.8-41.45-119.66-248.7-143.6v95.73l-82.9-47.86v95.73l497.39 287.19v-95.73z"/><path fill="#804702" d="M3929.18 1826.12l207.24-119.67 41.45 119.67-207.24 119.66-41.45-119.66z"/><ellipse class="cls-1" cx="3768.17" cy="1965.57" rx="43.23" ry="68.54" transform="matrix(.87 -.5 .5 .87 -562.87 2064.44)"/><ellipse class="cls-20" cx="3765.41" cy="1965.57" rx="26.21" ry="41.55" transform="rotate(-30 3568.102 2082.55)"/><path fill="#161617" d="M3984.51 2097.39l40.59-24.43-26.13-15.08-14.46 39.51z"/><ellipse cx="4033.36" cy="2122.16" rx="43.23" ry="68.54" transform="rotate(-30 3836.062 2239.15)" fill="#2c2d2e"/><ellipse class="cls-20" cx="4029.31" cy="2124.49" rx="26.21" ry="41.55" transform="rotate(-30 3832.02 2241.467)"/><path fill="#583424" d="M3680.48 1706.45l258.73 148.64 31.42 90.69-290.15-167.53v-71.8z"/><path class="cls-13" d="M4136.42 1706.45l-207.24 119.67 10.03 28.97 207.2-119.79-9.99-28.85z"/><path class="cls-2" d="M1320.81 1965.82l1645.76-936.79 806.74 516.92-1592.08 919.15-860.42-499.28z"/><path class="cls-24" d="M2183.49 1341.29v965.78l1324.32-764.67V576.62l-1324.32 764.67z"/><path class="cls-25" d="M2239.82 1644.26v511.41l1267.99-736.72V907.54l-1267.99 736.72z"/><path fill="#4991c9" d="M2261.56 1662.13v462.93l1229.46-715.95V946.17l-1229.46 715.96z"/><path class="cls-27" d="M1470.38 929.55l713.11 411.74v965.78l-713.11-411.74V929.55z"/><path class="cls-28" d="M1470.38 1240.94l713.11 411.74v515.85l-713.11-411.75v-515.84z"/><path fill="#8ca2bc" d="M1486.72 1267.98l680.88 394.74v482.68l-680.88-394.74v-482.68z"/><path fill="#697a8d" d="M1515.37 1516.55l652.23 357.36v271.49l-652.23-377.9v-250.95z"/><path class="cls-28" d="M1699.88 1391.58l28.65 16.57v485.45l-28.65-16.57v-485.45z"/><path class="cls-31" d="M1486.72 1275.9l28.65 16.56v475.04l-28.65-16.57V1275.9zM1728.53 1408.31l28.66 16.57v482.69l-28.66-16.57v-482.69z"/><path class="cls-28" d="M1945.96 1534.2l28.66 16.57v485.45l-28.66-16.57V1534.2z"/><path class="cls-31" d="M1974.62 1550.93l28.65 16.57v482.69l-28.65-16.56v-482.7z"/><path class="cls-25" d="M3082.57 1164.04l-28.65 16.57v485.45l28.65-16.57v-485.45z"/><path class="cls-32" d="M3053.92 1200.71l-28.65 16.69v462.63l28.65-16.57v-462.75zM2507.52 1518.9l28.66-16.68.06 462.88-28.79 17.1.07-463.3z"/><path fill="#f3ebe2" d="M3507.81 576.62l-713.1-411.74-1324.33 764.67 713.11 411.74 1324.32-764.67z"/><path class="cls-3" d="M1320.81 1965.82l-2.25 98.57 862.67 491.27v-90.56l-860.42-499.28z"/><path fill="#b3979a" d="M2788 242.23L1583.89 929.55l597.34 336.16 1217.58-679.16L2788 242.23z"/><path fill="#8d7668" d="M2788 242.23v72.66L1642.8 962.7l-58.91-33.15L2788 242.23z"/><path fill="#c2acae" d="M3398.81 586.55l-67.52 37.67L2788 315.66v-73.43l610.81 344.32z"/><path class="cls-25" d="M2536.24 1472.16v631.3l313.66-181.11v-632.56l-313.66 182.37z"/><path fill="#76acd7" d="M2550.39 1488.55v606.78l288.82-166.77v-606.78l-288.82 166.77z"/><path class="cls-32" d="M2810.56 1338.32l28.65-16.54v606.78l-28.65-17.25v-572.99z"/><path class="cls-38" d="M2183.49 1550.75v50.93l1327.93-764.44v-50.93l-1327.93 764.44z"/><path class="cls-4" d="M3773.31 1545.95v90.55l-1592.08 919.16v-90.56l1592.08-919.15z"/><path class="cls-39" d="M2183.49 1550.75l.04-10.8 1320.68-758.87 7.21 5.23-1327.93 764.44z"/><path fill="#8c7679" d="M2183.49 1550.75v50.93l-713.58-411.97v-50.93l713.58 411.97z"/><path fill="#168091" d="M2183.49 1482.93v50.93l-712.69-410.28v-50.92l712.69 410.27z"/><path class="cls-18" d="M2183.49 1410.23v50.93l-712.69-411.74v-50.93l712.69 411.74z"/><path class="cls-42" d="M2183.58 1550.75l-.05-10.8-706.41-406.4-7.21 5.23 713.67 411.97zM2183.49 1482.93l-.05-10.8-712.64-409.98v10.51l712.69 410.27zM2183.58 1410.23l-.05-10.8-706.41-406.4-7.21 5.23 713.67 411.97z"/><path fill="#1294b2" d="M2183.49 1482.93v50.93l1327.93-764.44v-50.93l-1327.93 764.44z"/><path class="cls-39" d="M2183.49 1482.93l.04-10.8 1320.68-758.87 7.21 5.23-1327.93 764.44z"/><path class="cls-2" d="M2550.39 2061.82l260.17-150.51 28.65 17.25-288.82 166.77v-33.51z"/><path fill="#6d6e71" d="M2750.81 1612.12l32.66-18.94v146.5l-32.66 19.54v-147.1z"/><path class="cls-25" d="M3308.15 1032.86l-28.65 16.57v485.45l28.65-16.57v-485.45z"/><path class="cls-32" d="M3279.5 1069.53l-28.65 16.69v462.63l28.65-16.57v-462.75zM3462.39 962.85l28.65-16.68.07 462.89-28.79 17.09.07-463.3z"/><path class="cls-12" d="M2183.49 1410.23v50.93l1327.93-764.44v-50.93l-1327.93 764.44z"/><path class="cls-39" d="M2183.49 1410.23l.04-10.8 1320.68-758.87 7.21 5.23-1327.93 764.44z"/><path class="cls-11" d="M730.46 2072.14v119.1L3019.5 3512.92v-120.15L730.46 2072.14z"/><path fill="none" d="M0 0h5784.24v3796.84H0z"/><path fill="#983841" d="M3192.93 1305.51v422.09l121.84 70.34v-422.09l-121.84-70.34z"/><path fill="#cb4b57" d="M3558.44 1235.16v422.09l-243.67 140.69v-422.09l243.67-140.69z"/><path fill="#f5dbdd" d="M3532.05 1289.9v239.19l-181.64 104.88v-239.19l181.64-104.88z"/><path class="cls-49" d="M3388.08 1400.67v32.86l-17.63 10.6v-32.85l17.63-10.61z"/><path fill="#262262" d="M3425.05 1381.84v32.85l-17.62 10.61v-32.85l17.62-10.61z"/><path class="cls-51" d="M3460.19 1360.11v32.85l-17.62 10.61v-32.85l17.62-10.61z"/><path class="cls-38" d="M3492.63 1341.63v32.85l-17.62 10.6v-32.85l17.62-10.6z"/><path fill="#00a79d" d="M3388.08 1462.62v32.85l-17.63 10.61v-32.86l17.63-10.6z"/><path class="cls-12" d="M3425.05 1443.78v32.86l-17.62 10.6v-32.85l17.62-10.61z"/><path class="cls-38" d="M3460.19 1422.06v32.85l-17.62 10.6v-32.85l17.62-10.6z"/><path fill="#9e1f63" d="M3492.63 1403.57v32.85l-17.62 10.61v-32.86l17.62-10.6z"/><path class="cls-49" d="M3388.08 1524.35v32.85l-17.63 10.6v-32.85l17.63-10.6z"/><path class="cls-12" d="M3425.05 1505.51v32.85l-17.62 10.61v-32.85l17.62-10.61z"/><path class="cls-54" d="M3460.19 1483.78v32.85l-17.62 10.61v-32.85l17.62-10.61z"/><path class="cls-38" d="M3492.63 1465.3v32.85l-17.62 10.61v-32.86l17.62-10.6z"/><path class="cls-55" d="M3483.3 1591v65.37l-69.02 39.85v-65.37l69.02-39.85z"/><path fill="#d56f79" d="M3192.93 1305.51l243.68-140.7 121.83 70.35-243.67 140.69-121.84-70.34z"/><path class="cls-55" d="M3532.05 1529.09l-17.36-12.54v-216.62l17.36-10.03v239.19z"/><path fill="#cca7aa" d="M3350.41 1612.63l164.28-96.08 17.36 12.54-181.64 104.88v-21.34z"/><path fill="#27aae1" opacity=".11" d="M3532.05 1289.9v239.19l-181.64 104.88v-239.19l181.64-104.88z"/><path class="cls-27" d="M2334.7 2219.76v-10.03l47.18-28.29v11.08l-47.18 27.24z"/><path fill="#d1d3d4" d="M2430.02 2159.48l91.18 52.65-91.18 52.65-91.18-52.65 91.18-52.65z"/><path class="cls-39" d="M2430.02 1877.51l92.13 52.13-92.13 52.62-91.14-52.62 91.14-52.13z"/><circle cx="2415.2" cy="1929.45" r="12.31" fill="#00a651"/><circle cx="2444.63" cy="1927.35" r="12.31" fill="#92278f"/><circle class="cls-54" cx="2429.01" cy="1904.83" r="12.31"/><circle class="cls-51" cx="2453.63" cy="1897.33" r="12.31"/><circle class="cls-12" cx="2429.01" cy="1877.52" r="12.31"/><circle cx="2404.39" cy="1900.33" r="12.31" fill="#c9c9a7"/><circle cx="2388.78" cy="1921.85" r="12.31" fill="#ef4136"/><circle cx="2469.25" cy="1919.47" r="12.31" fill="#ee2a7b"/><path opacity=".49" fill="#d1e3f2" d="M2523.11 2036.86l-.95-212-92.14 52.65v210.6l93.09-51.25z"/><path fill="#9daab5" opacity=".54" d="M2338.84 1824.86v210.6l91.18 52.65v-210.6l-91.18-52.65z"/><path class="cls-67" d="M2523.11 2036.86l-.96-107.22-92.13 52.62v105.85l93.09-51.25z"/><path d="M2579 2108.79v-38.93a8.12 8.12 0 00-12.18-7l-8.74 5.05a8.12 8.12 0 00-4.06 7v38.93a8.12 8.12 0 0012.18 7l8.74-5a8.12 8.12 0 004.06-7.05z" transform="translate(-84.93 -82.98)" opacity=".74" fill="#d1e3f2"/><path class="cls-67" d="M2430.02 1772.21l91.18 52.65-91.18 52.65-91.18-52.65 91.18-52.65z"/><path fill="#540441" d="M2338.84 1930.16v105.3l91.18 52.65v-105.85l-91.18-52.1z"/><path class="cls-20" d="M2392.08 2066.21v149.11l37.94 19.78v-146.99l-37.94-21.9z"/><path class="cls-15" d="M2465.94 2068.33v145.82l-35.92 20.95v-146.99l35.92-19.78z"/><path fill="#a7a9ac" d="M2338.84 2212.13v13.57l91.18 52.08v-13l-91.18-52.65z"/><path class="cls-15" d="M2521.2 2212.13v12.79l-91.18 52.86v-13l91.18-52.65z"/><path class="cls-27" d="M2392.08 2066.21v115.17l-10.2 5.9v-114.14l10.2-6.93z"/><path class="cls-24" d="M2377.29 2057.67l4.59 15.47 10.2-6.93-14.79-8.54z"/><path fill="#a852a5" d="M2430.02 1772.21v105.3l92.14-52.65-92.14-52.65z"/><path fill="#797a7c" d="M5143.83 2170.7l-1.27 116.36L3019.5 3512.92v-120.15L5143.83 2170.7z"/></svg>
