<svg width="559" height="562" fill="none" xmlns="http://www.w3.org/2000/svg"><path fill="#fff" d="M62 439h71v71H62z"/><circle cx="275" cy="285" r="251" fill="#fff"/><path fill-rule="evenodd" clip-rule="evenodd" d="M407.186 336.282c-6.947-3.478-41.107-20.284-47.478-22.606-6.368-2.318-11-3.476-15.632 3.478-4.632 6.954-17.946 22.606-21.999 27.244-4.054 4.636-8.107 5.218-15.054 1.738-6.949-3.477-29.337-10.813-55.876-34.486-20.653-18.424-34.6-41.176-38.652-48.132-4.053-6.956-.433-10.716 3.046-14.18 3.126-3.113 6.949-8.116 10.422-12.173 3.475-4.056 4.632-6.956 6.948-11.591 2.316-4.639 1.16-8.693-.58-12.172-1.736-3.477-15.632-37.679-21.421-51.592-5.64-13.546-11.368-11.712-15.633-11.926-4.048-.2-8.686-.244-13.316-.244-4.632 0-12.16 1.738-18.529 8.693-6.368 6.956-24.318 23.766-24.318 57.964 0 34.201 24.896 67.24 28.371 71.876 3.475 4.64 48.993 74.817 118.694 104.913 16.576 7.16 29.52 11.434 39.61 14.636 16.643 5.289 31.79 4.542 43.762 2.753 13.349-1.993 41.108-16.807 46.899-33.036 5.789-16.233 5.789-30.144 4.053-33.04-1.737-2.9-6.369-4.639-13.317-8.117zM280.41 509.381h-.093c-41.474-.016-82.151-11.158-117.636-32.216l-8.44-5.009-87.475 22.947 23.348-85.288-5.493-8.745c-23.137-36.798-35.357-79.328-35.338-123 .05-127.43 103.733-231.105 231.219-231.105 61.733.021 119.762 24.093 163.401 67.781 43.636 43.686 67.653 101.755 67.629 163.511-.052 127.441-103.733 231.124-231.122 231.124zm196.703-427.83C424.614 28.99 354.795.03 280.407 0 127.137 0 2.395 124.736 2.332 278.053c-.02 49.01 12.784 96.846 37.12 139.018L0 561.167 147.41 522.5c40.616 22.152 86.347 33.829 132.885 33.844h.118c153.254 0 278.008-124.746 278.071-278.066.028-74.303-28.869-144.166-81.369-196.726" fill="#455A64"/></svg>
